<svg width="48" height="48" viewBox="0 0 48 48" fill="none" xmlns="http://www.w3.org/2000/svg">
<path d="M48 16C48 12.0218 46.4196 8.20644 43.6066 5.3934C40.7936 2.58035 36.9782 1 33 1C29.0218 1 25.2064 2.58035 22.3934 5.3934C19.5804 8.20644 18 12.0218 18 16L33 16H48Z" fill="#001E54"/>
<path d="M0 32C0 35.9782 1.58035 39.7936 4.3934 42.6066C7.20644 45.4196 11.0218 47 15 47C18.9782 47 22.7936 45.4196 25.6066 42.6066C28.4196 39.7936 30 35.9782 30 32L15 32L0 32Z" fill="#001E54"/>
<path fill-rule="evenodd" clip-rule="evenodd" d="M23 1.73009C20.9103 0.625463 18.5282 0 16 0C7.71573 0 1 6.71573 1 15C1 23.2843 7.71573 30 16 30C18.5282 30 20.9103 29.3745 23 28.2699C18.2422 25.7549 15 20.7561 15 15C15 9.24391 18.2422 4.24508 23 1.73009Z" fill="#001E54"/>
<path fill-rule="evenodd" clip-rule="evenodd" d="M25 46.2699C27.0897 47.3745 29.4718 48 32 48C40.2843 48 47 41.2843 47 33C47 24.7157 40.2843 18 32 18C29.4718 18 27.0897 18.6255 25 19.7301C29.7578 22.2451 33 27.2439 33 33C33 38.7561 29.7578 43.7549 25 46.2699Z" fill="#001E54"/>
</svg>
