<svg width="12" height="25" viewBox="0 0 12 25" fill="none" xmlns="http://www.w3.org/2000/svg">
<g id="fa:mobile" clip-path="url(#clip0_152_1082)">
<path id="Vector" d="M7.25 21.7544C7.25 21.3419 7.1276 20.9888 6.88281 20.695C6.63802 20.4013 6.34375 20.2544 6 20.2544C5.65625 20.2544 5.36198 20.4013 5.11719 20.695C4.8724 20.9888 4.75 21.3419 4.75 21.7544C4.75 22.1669 4.8724 22.52 5.11719 22.8138C5.36198 23.1075 5.65625 23.2544 6 23.2544C6.34375 23.2544 6.63802 23.1075 6.88281 22.8138C7.1276 22.52 7.25 22.1669 7.25 21.7544ZM10.5 18.7544V5.55442C10.5 5.39192 10.4505 5.25129 10.3516 5.13254C10.2526 5.01379 10.1354 4.95442 10 4.95442H2C1.86458 4.95442 1.7474 5.01379 1.64844 5.13254C1.54948 5.25129 1.5 5.39192 1.5 5.55442V18.7544C1.5 18.9169 1.54948 19.0575 1.64844 19.1763C1.7474 19.295 1.86458 19.3544 2 19.3544H10C10.1354 19.3544 10.2526 19.295 10.3516 19.1763C10.4505 19.0575 10.5 18.9169 10.5 18.7544ZM7.5 2.85442C7.5 2.65442 7.41667 2.55442 7.25 2.55442H4.75C4.58333 2.55442 4.5 2.65442 4.5 2.85442C4.5 3.05442 4.58333 3.15442 4.75 3.15442H7.25C7.41667 3.15442 7.5 3.05442 7.5 2.85442ZM12 2.55442V21.7544C12 22.4044 11.8021 22.9669 11.4062 23.4419C11.0104 23.9169 10.5417 24.1544 10 24.1544H2C1.45833 24.1544 0.989583 23.9169 0.59375 23.4419C0.197917 22.9669 0 22.4044 0 21.7544V2.55442C0 1.90442 0.197917 1.34192 0.59375 0.866919C0.989583 0.391919 1.45833 0.154419 2 0.154419H10C10.5417 0.154419 11.0104 0.391919 11.4062 0.866919C11.8021 1.34192 12 1.90442 12 2.55442Z" fill="black"/>
</g>
<defs>
<clipPath id="clip0_152_1082">
<rect width="12" height="24" fill="white" transform="translate(0 0.154419)"/>
</clipPath>
</defs>
</svg>
