<svg width="16" height="21" viewBox="0 0 16 21" fill="none" xmlns="http://www.w3.org/2000/svg">
<g id="fe:prototype">
<path id="Vector" fill-rule="evenodd" clip-rule="evenodd" d="M6.00003 10.0515H4.48803C4.34128 10.3692 4.11475 10.6176 3.84358 10.758C3.57241 10.8984 3.27175 10.923 2.98824 10.8281C2.70473 10.7331 2.45421 10.5239 2.27553 10.2328C2.09685 9.94171 2 9.58507 2 9.21818C2 8.85129 2.09685 8.49465 2.27553 8.20358C2.45421 7.9125 2.70473 7.70326 2.98824 7.6083C3.27175 7.51335 3.57241 7.53798 3.84358 7.67838C4.11475 7.81878 4.34128 8.06711 4.48803 8.38485H6.00003V4.21818C6.00003 3.77615 6.14051 3.35223 6.39056 3.03967C6.64061 2.72711 6.97975 2.55151 7.33337 2.55151H12.6667C13.0203 2.55151 13.3595 2.72711 13.6095 3.03967C13.8596 3.35223 14 3.77615 14 4.21818V15.8848C14 16.3269 13.8596 16.7508 13.6095 17.0634C13.3595 17.3759 13.0203 17.5515 12.6667 17.5515H7.33337C6.97975 17.5515 6.64061 17.3759 6.39056 17.0634C6.14051 16.7508 6.00003 16.3269 6.00003 15.8848V10.0515ZM7.33337 10.0515V15.8848H12.6667V4.21818H7.33337V8.38485H8.84537C8.99212 8.06711 9.21865 7.81878 9.48982 7.67838C9.76099 7.53798 10.0616 7.51335 10.3452 7.6083C10.6287 7.70326 10.8792 7.9125 11.0579 8.20358C11.2366 8.49465 11.3334 8.85129 11.3334 9.21818C11.3334 9.58507 11.2366 9.94171 11.0579 10.2328C10.8792 10.5239 10.6287 10.7331 10.3452 10.8281C10.0616 10.923 9.76099 10.8984 9.48982 10.758C9.21865 10.6176 8.99212 10.3692 8.84537 10.0515H7.33337Z" fill="black"/>
</g>
</svg>
