<svg width="24" height="25" viewBox="0 0 24 25" fill="none" xmlns="http://www.w3.org/2000/svg">
<g id="fluent-mdl2:product-variant" clip-path="url(#clip0_94_525)">
<path id="Vector" d="M15.75 0.0749512L24 4.19995V13.3992L22.5 12.6492V5.87573L16.5 8.87573V11.8992L15 12.6492V8.87573L9 5.87573V8.53589L7.5 7.78589V4.19995L15.75 0.0749512ZM15.75 7.57495L17.8242 6.53198L12.3984 3.42651L9.92578 4.6687L15.75 7.57495ZM19.4414 5.73511L21.5742 4.6687L15.75 1.75073L14.0039 2.62964L19.4414 5.73511ZM13.5 13.3992L12 14.1492V14.1375L7.5 16.3875V21.7195L12 19.4578V21.1453L6.75 23.7703L0 20.3835V12.4617L6.75 9.08667L13.5 12.4617V13.3992ZM6 21.7195V16.3875L1.5 14.1375V19.4578L6 21.7195ZM6.75 15.0867L11.0742 12.9304L6.75 10.7625L2.42578 12.9304L6.75 15.0867ZM13.5 15.075L18.75 12.45L24 15.075V21.2507L18.75 23.8757L13.5 21.2507V15.075ZM18 21.825V18.2507L15 16.7507V20.325L18 21.825ZM22.5 20.325V16.7507L19.5 18.2507V21.825L22.5 20.325ZM18.75 16.95L21.5742 15.532L18.75 14.1257L15.9258 15.532L18.75 16.95Z" fill="black"/>
</g>
<defs>
<clipPath id="clip0_94_525">
<rect width="24" height="24" fill="white" transform="translate(0 0.0515137)"/>
</clipPath>
</defs>
</svg>
