<svg width="40" height="41" viewBox="0 0 40 41" fill="none" xmlns="http://www.w3.org/2000/svg">
<rect y="0.154419" width="40" height="40" rx="8" fill="#ECECEC"/>
<path d="M12.6667 16.1545C12.7667 14.9656 13.1307 13.8711 13.7587 12.8711C14.3867 11.8711 15.2227 11.0767 16.2667 10.4878L15.0334 8.35447C14.9667 8.25447 14.9501 8.14891 14.9834 8.0378C15.0167 7.92669 15.089 7.84336 15.2001 7.7878C15.289 7.73225 15.389 7.72113 15.5001 7.75447C15.6112 7.7878 15.7001 7.85447 15.7667 7.95447L17.0001 10.0878C17.9556 9.6878 18.9556 9.4878 20.0001 9.4878C21.0445 9.4878 22.0445 9.6878 23.0001 10.0878L24.2334 7.95447C24.3001 7.85447 24.389 7.7878 24.5001 7.75447C24.6112 7.72113 24.7112 7.73225 24.8001 7.7878C24.9112 7.84336 24.9834 7.92669 25.0167 8.0378C25.0501 8.14891 25.0334 8.25447 24.9667 8.35447L23.7334 10.4878C24.7779 11.0767 25.6139 11.8711 26.2414 12.8711C26.869 13.8711 27.233 14.9656 27.3334 16.1545H12.6667ZM16.6667 14.3211C16.9001 14.3211 17.0974 14.2405 17.2587 14.0791C17.4201 13.9178 17.5005 13.7207 17.5001 13.4878C17.4996 13.2549 17.419 13.0576 17.2581 12.8958C17.0972 12.734 16.9001 12.6536 16.6667 12.6545C16.4334 12.6554 16.2361 12.736 16.0747 12.8965C15.9134 13.0569 15.833 13.254 15.8334 13.4878C15.8339 13.7216 15.9145 13.9189 16.0754 14.0798C16.2363 14.2407 16.4334 14.3211 16.6667 14.3211ZM23.3334 14.3211C23.5667 14.3211 23.7641 14.2405 23.9254 14.0791C24.0867 13.9178 24.1672 13.7207 24.1667 13.4878C24.1663 13.2549 24.0856 13.0576 23.9247 12.8958C23.7639 12.734 23.5667 12.6536 23.3334 12.6545C23.1001 12.6554 22.9027 12.736 22.7414 12.8965C22.5801 13.0569 22.4996 13.254 22.5001 13.4878C22.5005 13.7216 22.5812 13.9189 22.7421 14.0798C22.903 14.2407 23.1001 14.3211 23.3334 14.3211Z" fill="black"/>
<path d="M14.6667 26.1544V24.821H16.0001V26.1544H14.6667ZM14.6667 31.4877V27.4877H16.0001V31.4877H14.6667ZM16.6667 31.4877V24.821H20.6667V31.4877H16.6667ZM18.0001 30.1544H19.3334V26.1544H18.0001V30.1544ZM21.3334 31.4877V30.1544H24.0001V28.821H21.3334V24.821H25.3334V26.1544H22.6667V27.4877H25.3334V31.4877H21.3334Z" fill="black"/>
</svg>
