<svg width="40" height="41" viewBox="0 0 40 41" fill="none" xmlns="http://www.w3.org/2000/svg">
<g id="Frame 33">
<rect y="0.257324" width="40" height="40" rx="8" fill="#ECECEC"/>
<g id="Group">
<path id="Vector" d="M28.0012 23.2573V15.2573C28.0012 13.3713 28.0012 12.4293 27.4152 11.8433C26.8292 11.2573 25.8872 11.2573 24.0012 11.2573H16.0012C14.1152 11.2573 13.1732 11.2573 12.5872 11.8433C12.0012 12.4293 12.0012 13.3713 12.0012 15.2573V23.2573" stroke="black" stroke-width="1.5" stroke-linecap="round" stroke-linejoin="round"/>
<path id="Vector_2" d="M16.0013 17.1514H16.1633C16.9743 17.1514 17.3803 17.1514 17.6903 17.3254C18.0003 17.4994 18.1383 17.8054 18.4173 18.4184L18.7533 19.1584C18.9363 19.5624 19.0283 19.7634 19.1763 19.7574C19.3243 19.7514 19.3883 19.5434 19.5173 19.1274L20.6743 15.4044C20.8073 14.9764 20.8743 14.7624 21.0233 14.7574C21.1723 14.7524 21.2623 14.9604 21.4403 15.3774L21.6433 15.8504C21.9133 16.4784 22.0473 16.7924 22.3603 16.9714C22.6733 17.1504 23.0863 17.1514 23.9123 17.1514H24.0013M11.4993 24.2724L12.0213 23.2574H27.9533L28.5033 24.2724C29.9463 26.9344 30.3063 28.2654 29.7573 29.2614C29.2083 30.2574 27.7553 30.2574 24.8473 30.2574H15.1553C12.2463 30.2574 10.7923 30.2574 10.2443 29.2614C9.69527 28.2654 10.0553 26.9344 11.4993 24.2724Z" stroke="black" stroke-width="1.5" stroke-linecap="round" stroke-linejoin="round"/>
</g>
</g>
</svg>
