<svg width="24" height="25" viewBox="0 0 24 25" fill="none" xmlns="http://www.w3.org/2000/svg">
<g id="game-icons:journey">
<path id="Vector" d="M19.8838 4.06372C19.8993 4.06606 19.8435 4.06813 19.7285 4.06813C18.8607 4.06813 18.0513 5.00844 18.0513 6.29469C18.0513 6.94297 18.2722 7.52319 18.5962 7.925L19.0751 8.51685L18.3222 8.63263C17.8272 8.70842 17.4942 8.93413 17.2148 9.30491C16.9353 9.67569 16.7299 10.204 16.5937 10.821C16.3506 11.9222 16.3316 13.2785 16.33 14.4846H17.7568L17.7846 14.8933L18.1171 19.8899H21.2021L21.5785 14.8888L21.6093 14.4845H23.1093C23.0981 13.2947 23.0334 11.9564 22.7651 10.8635C22.6144 10.25 22.4002 9.72186 22.1235 9.34588C21.8467 8.96994 21.5282 8.74353 21.0892 8.66183L20.3524 8.52416L20.8344 7.94994C21.1732 7.54574 21.4056 6.9591 21.4056 6.29464C21.4056 5.08808 20.679 4.16624 19.8925 4.06517L19.8836 4.06377L19.8838 4.06372ZM8.41113 4.22192C6.25957 4.22221 3.73095 4.47378 0.834961 5.06122V5.95775C13.3983 4.193 16.8449 7.74603 11.4404 9.677C5.94073 11.642 1.5731 21.5016 18.9126 22.3611C19.1171 22.3816 19.3274 22.3933 19.5424 22.3933C20.5868 22.3933 21.5271 22.1377 22.1733 21.7561C22.8195 21.3745 23.1386 20.9058 23.1386 20.448C23.1386 19.9903 22.8195 19.5216 22.1733 19.1399C22.1625 19.1335 22.1507 19.1272 22.1397 19.1208L22.0459 20.3616L22.0152 20.7673H17.2969L17.2705 20.3572L17.1167 18.0369C11.1076 18.1681 9.46409 13.3255 13.3623 11.9211C14.3179 11.5768 15.1007 11.1788 15.7148 10.7478C15.7228 10.7093 15.7298 10.6702 15.7383 10.632C15.8912 9.9395 16.1253 9.29619 16.5161 8.77756C16.7479 8.46992 17.043 8.21178 17.3936 8.02897C17.2472 6.03458 14.1904 4.22103 8.41109 4.22192H8.41113Z" fill="black"/>
</g>
</svg>
