<svg width="24" height="25" viewBox="0 0 24 25" fill="none" xmlns="http://www.w3.org/2000/svg">
<g id="heroicons:user-group-16-solid">
<path id="Vector" d="M12 12.0515C12.9946 12.0515 13.9484 11.6564 14.6517 10.9531C15.3549 10.2498 15.75 9.29601 15.75 8.30145C15.75 7.30689 15.3549 6.35306 14.6517 5.6498C13.9484 4.94654 12.9946 4.55145 12 4.55145C11.0055 4.55145 10.0516 4.94654 9.34837 5.6498C8.6451 6.35306 8.25002 7.30689 8.25002 8.30145C8.25002 9.29601 8.6451 10.2498 9.34837 10.9531C10.0516 11.6564 11.0055 12.0515 12 12.0515ZM4.73402 17.696C4.97402 16.7525 5.39402 15.881 5.95352 15.116C5.13973 14.9603 4.29732 15.0786 3.55784 15.4523C2.81835 15.8259 2.22344 16.434 1.86602 17.1815C1.66202 17.612 2.01902 18.0515 2.49302 18.0515H4.66652C4.68152 17.9355 4.70402 17.817 4.73402 17.696ZM19.2705 17.696C19.3005 17.816 19.3235 17.9345 19.3395 18.0515H21.5085C21.9825 18.0515 22.3395 17.612 22.134 17.183C21.777 16.4361 21.1829 15.8283 20.4444 15.4544C19.7058 15.0805 18.8643 14.9615 18.051 15.116C18.612 15.881 19.0305 16.751 19.2705 17.696ZM21 11.3015C21 11.5969 20.9418 11.8895 20.8287 12.1625C20.7157 12.4355 20.5499 12.6835 20.341 12.8924C20.1321 13.1014 19.884 13.2671 19.6111 13.3802C19.3381 13.4933 19.0455 13.5515 18.75 13.5515C18.4545 13.5515 18.162 13.4933 17.889 13.3802C17.616 13.2671 17.368 13.1014 17.159 12.8924C16.9501 12.6835 16.7844 12.4355 16.6713 12.1625C16.5582 11.8895 16.5 11.5969 16.5 11.3015C16.5 10.7047 16.7371 10.1324 17.159 9.71046C17.581 9.28851 18.1533 9.05145 18.75 9.05145C19.3468 9.05145 19.9191 9.28851 20.341 9.71046C20.763 10.1324 21 10.7047 21 11.3015ZM5.25002 13.5515C5.84675 13.5515 6.41905 13.3144 6.84101 12.8924C7.26296 12.4705 7.50002 11.8982 7.50002 11.3015C7.50002 10.7047 7.26296 10.1324 6.84101 9.71046C6.41905 9.28851 5.84675 9.05145 5.25002 9.05145C4.65328 9.05145 4.08098 9.28851 3.65903 9.71046C3.23707 10.1324 3.00002 10.7047 3.00002 11.3015C3.00002 11.8982 3.23707 12.4705 3.65903 12.8924C4.08098 13.3144 4.65328 13.5515 5.25002 13.5515ZM7.50002 19.5515C6.67202 19.5515 5.98052 18.869 6.18602 18.0665C6.51709 16.7758 7.26817 15.6319 8.32094 14.8151C9.3737 13.9983 10.6683 13.555 12.0008 13.555C13.3332 13.555 14.6278 13.9983 15.6806 14.8151C16.7334 15.6319 17.4844 16.7758 17.8155 18.0665C18.0195 18.869 17.3295 19.5515 16.5 19.5515H7.50002Z" fill="black"/>
</g>
</svg>
