<svg width="24" height="25" viewBox="0 0 24 25" fill="none" xmlns="http://www.w3.org/2000/svg">
<g id="ic:round-laptop">
<path id="Vector" d="M20 18.2573C21.1 18.2573 22 17.3573 22 16.2573V6.25732C22 5.15732 21.1 4.25732 20 4.25732H4C2.9 4.25732 2 5.15732 2 6.25732V16.2573C2 17.3573 2.9 18.2573 4 18.2573H1C0.45 18.2573 0 18.7073 0 19.2573C0 19.8073 0.45 20.2573 1 20.2573H23C23.55 20.2573 24 19.8073 24 19.2573C24 18.7073 23.55 18.2573 23 18.2573H20ZM5 6.25732H19C19.55 6.25732 20 6.70732 20 7.25732V15.2573C20 15.8073 19.55 16.2573 19 16.2573H5C4.45 16.2573 4 15.8073 4 15.2573V7.25732C4 6.70732 4.45 6.25732 5 6.25732Z" fill="black"/>
</g>
</svg>
