<svg width="24" height="25" viewBox="0 0 24 25" fill="none" xmlns="http://www.w3.org/2000/svg">
<g id="mdi:responsive">
<path id="Vector" d="M4 6.25732V16.2573H9V12.2573C9 11.7269 9.21071 11.2182 9.58579 10.8431C9.96086 10.468 10.4696 10.2573 11 10.2573H16C16.5304 10.2573 17.0391 10.468 17.4142 10.8431C17.7893 11.2182 18 11.7269 18 12.2573V16.2573H20V6.25732H4ZM0 20.2573V18.2573H4C3.46957 18.2573 2.96086 18.0466 2.58579 17.6715C2.21071 17.2965 2 16.7878 2 16.2573V6.25732C2 5.72689 2.21071 5.21818 2.58579 4.84311C2.96086 4.46804 3.46957 4.25732 4 4.25732H20C20.5304 4.25732 21.0391 4.46804 21.4142 4.84311C21.7893 5.21818 22 5.72689 22 6.25732V16.2573C22 16.7878 21.7893 17.2965 21.4142 17.6715C21.0391 18.0466 20.5304 18.2573 20 18.2573H24V20.2573H18C18 20.7878 17.7893 21.2965 17.4142 21.6715C17.0391 22.0466 16.5304 22.2573 16 22.2573H11C10.4696 22.2573 9.96086 22.0466 9.58579 21.6715C9.21071 21.2965 9 20.7878 9 20.2573H0ZM11.5 20.2573C11.3674 20.2573 11.2402 20.31 11.1464 20.4038C11.0527 20.4975 11 20.6247 11 20.7573C11 20.8899 11.0527 21.0171 11.1464 21.1109C11.2402 21.2046 11.3674 21.2573 11.5 21.2573C11.6326 21.2573 11.7598 21.2046 11.8536 21.1109C11.9473 21.0171 12 20.8899 12 20.7573C12 20.6247 11.9473 20.4975 11.8536 20.4038C11.7598 20.31 11.6326 20.2573 11.5 20.2573ZM15.5 20.2573C15.3674 20.2573 15.2402 20.31 15.1464 20.4038C15.0527 20.4975 15 20.6247 15 20.7573C15 20.8899 15.0527 21.0171 15.1464 21.1109C15.2402 21.2046 15.3674 21.2573 15.5 21.2573C15.6326 21.2573 15.7598 21.2046 15.8536 21.1109C15.9473 21.0171 16 20.8899 16 20.7573C16 20.6247 15.9473 20.4975 15.8536 20.4038C15.7598 20.31 15.6326 20.2573 15.5 20.2573ZM13 20.2573V21.2573H14V20.2573H13ZM11 12.2573V19.2573H16V12.2573H11Z" fill="black"/>
</g>
</svg>
