<svg width="24" height="25" viewBox="0 0 24 25" fill="none" xmlns="http://www.w3.org/2000/svg">
<g id="pepicons-pop:code">
<g id="Group">
<path id="Vector" fill-rule="evenodd" clip-rule="evenodd" d="M1.90792 11.3516C2.12087 11.1152 2.419 10.973 2.73674 10.9564C3.05448 10.9397 3.36583 11.0499 3.60232 11.2628L7.60313 14.8628C7.83239 15.0776 7.96829 15.3737 7.98163 15.6876C7.99497 16.0014 7.8847 16.308 7.67449 16.5415C7.46428 16.7749 7.17089 16.9167 6.85735 16.9362C6.5438 16.9557 6.23509 16.8515 5.99752 16.646L1.99672 13.046C1.76031 12.833 1.61815 12.5349 1.6015 12.2172C1.58485 11.8994 1.69507 11.5881 1.90792 11.3516Z" fill="#252525"/>
<path id="Vector_2" fill-rule="evenodd" clip-rule="evenodd" d="M7.69204 7.75161C7.9049 7.9881 8.01512 8.29945 7.99847 8.61719C7.98182 8.93494 7.83965 9.23306 7.60324 9.44601L3.60244 13.046C3.48598 13.1551 3.34893 13.2399 3.19931 13.2954C3.04969 13.3509 2.8905 13.376 2.73106 13.3692C2.57163 13.3624 2.41514 13.3239 2.27077 13.2559C2.1264 13.1879 1.99704 13.0918 1.89026 12.9732C1.78348 12.8546 1.70142 12.7159 1.6489 12.5652C1.59637 12.4146 1.57443 12.2549 1.58435 12.0956C1.59428 11.9364 1.63587 11.7807 1.7067 11.6377C1.77753 11.4947 1.87617 11.3672 1.99684 11.2628L5.99764 7.66281C6.23414 7.44995 6.54549 7.33973 6.86323 7.35638C7.18097 7.37303 7.47909 7.5152 7.69204 7.75161ZM22.092 11.3516C22.3049 11.5881 22.4151 11.8995 22.3985 12.2172C22.3818 12.5349 22.2397 12.8331 22.0032 13.046L18.0024 16.646C17.886 16.7551 17.7489 16.8399 17.5993 16.8954C17.4497 16.9509 17.2905 16.976 17.1311 16.9692C16.9716 16.9624 16.8151 16.9239 16.6708 16.8559C16.5264 16.7879 16.397 16.6918 16.2903 16.5732C16.1835 16.4546 16.1014 16.3159 16.0489 16.1652C15.9964 16.0146 15.9744 15.8549 15.9844 15.6956C15.9943 15.5364 16.0359 15.3807 16.1067 15.2377C16.1775 15.0947 16.2762 14.9672 16.3968 14.8628L20.3976 11.2628C20.6341 11.05 20.9455 10.9397 21.2632 10.9564C21.581 10.973 21.8791 11.1152 22.092 11.3516Z" fill="#252525"/>
<path id="Vector_3" fill-rule="evenodd" clip-rule="evenodd" d="M16.308 7.75162C16.5209 7.5152 16.8191 7.37304 17.1368 7.35639C17.4545 7.33974 17.7659 7.44996 18.0024 7.66282L22.0032 11.2628C22.2325 11.4776 22.3684 11.7737 22.3817 12.0876C22.395 12.4015 22.2848 12.7081 22.0746 12.9415C21.8643 13.175 21.571 13.3167 21.2574 13.3362C20.9439 13.3558 20.6352 13.2516 20.3976 13.046L16.3968 9.44602C16.1604 9.23307 16.0182 8.93495 16.0016 8.6172C15.9849 8.29946 16.0951 7.98811 16.308 7.75162ZM14.1156 4.39642C14.2677 4.43783 14.4101 4.50881 14.5348 4.60529C14.6594 4.70177 14.7638 4.82186 14.8421 4.9587C14.9203 5.09554 14.9708 5.24646 14.9907 5.40283C15.0106 5.55919 14.9995 5.71795 14.958 5.87002L11.358 19.07C11.3165 19.2221 11.2456 19.3645 11.1491 19.4891C11.0526 19.6138 10.9325 19.7182 10.7957 19.7964C10.6588 19.8746 10.5079 19.9251 10.3516 19.945C10.1952 19.9649 10.0365 19.9539 9.88439 19.9124C9.73232 19.871 9.5899 19.8 9.46527 19.7035C9.34063 19.607 9.23622 19.4869 9.158 19.3501C9.07978 19.2132 9.02927 19.0623 9.00936 18.906C8.98946 18.7496 9.00055 18.5909 9.04199 18.4388L12.642 5.23882C12.6834 5.08673 12.7544 4.94429 12.8509 4.81964C12.9473 4.69499 13.0674 4.59057 13.2043 4.51234C13.3411 4.43411 13.492 4.38361 13.6484 4.36372C13.8048 4.34383 13.9635 4.35494 14.1156 4.39642Z" fill="#252525"/>
</g>
</g>
</svg>
