<svg width="24" height="25" viewBox="0 0 24 25" fill="none" xmlns="http://www.w3.org/2000/svg">
<g id="ri:seo-fill">
<path id="Vector" d="M8 3.25732C6.14348 3.25732 4.36301 3.99482 3.05025 5.30758C1.7375 6.62033 1 8.40081 1 10.2573C1 12.1138 1.7375 13.8943 3.05025 15.2071C4.36301 16.5198 6.14348 17.2573 8 17.2573H9.07C8.97427 16.5941 8.97427 15.9206 9.07 15.2573H8C6.67392 15.2573 5.40215 14.7305 4.46447 13.7929C3.52678 12.8552 3 11.5834 3 10.2573C3 8.93124 3.52678 7.65947 4.46447 6.72179C5.40215 5.78411 6.67392 5.25732 8 5.25732H16C16.7415 5.25717 17.4738 5.42195 18.1438 5.73973C18.8137 6.05751 19.4046 6.52032 19.8737 7.09465C20.3427 7.66898 20.6781 8.34044 20.8556 9.0604C21.0332 9.78036 21.0483 10.5308 20.9 11.2573C21.4895 11.8347 21.9723 12.5118 22.326 13.2573C22.8322 12.1903 23.0601 11.0125 22.9886 9.83361C22.9171 8.65475 22.5485 7.51314 21.9171 6.51506C21.2858 5.51697 20.4121 4.69486 19.3775 4.12526C18.3429 3.55566 17.181 3.25708 16 3.25732H8ZM11 16.2573C11.0002 15.4777 11.1827 14.709 11.5329 14.0125C11.8831 13.316 12.3913 12.711 13.0169 12.2459C13.6426 11.7808 14.3683 11.4684 15.1361 11.3337C15.904 11.199 16.6927 11.2458 17.4393 11.4702C18.1859 11.6946 18.8697 12.0905 19.436 12.6262C20.0024 13.1619 20.4356 13.8227 20.7011 14.5557C20.9666 15.2887 21.057 16.0736 20.9652 16.8477C20.8733 17.6219 20.6017 18.3638 20.172 19.0143L22.707 21.5503L21.293 22.9643L18.757 20.4293C18.0034 20.9275 17.1288 21.2121 16.2264 21.253C15.3239 21.2939 14.4272 21.0895 13.6316 20.6616C12.836 20.2337 12.1712 19.5982 11.7078 18.8228C11.2445 18.0473 10.9999 17.1607 11 16.2573Z" fill="black"/>
</g>
</svg>
