<svg width="24" height="25" viewBox="0 0 24 25" fill="none" xmlns="http://www.w3.org/2000/svg">
<g id="tdesign:secured-filled" clip-path="url(#clip0_152_1095)">
<path id="Vector" d="M22 4.09436L12 0.59436L2 4.09436V12.1544C2 16.2814 4.534 19.1664 6.896 20.9574C8.32208 22.0278 9.88622 22.9007 11.546 23.5524C11.6593 23.595 11.7733 23.6357 11.888 23.6744L12 23.7144L12.114 23.6744C12.3327 23.5984 12.5494 23.5171 12.764 23.4304C14.3097 22.7935 15.7681 21.9625 17.104 20.9574C19.467 19.1664 22 16.2814 22 12.1544V4.09436ZM11.001 15.5694L6.76 11.3264L8.174 9.91136L11.002 12.7404L16.659 7.08336L18.074 8.49736L11.001 15.5694Z" fill="#252525"/>
</g>
<defs>
<clipPath id="clip0_152_1095">
<rect width="24" height="24" fill="white" transform="translate(0 0.154419)"/>
</clipPath>
</defs>
</svg>
