<svg width="25" height="25" viewBox="0 0 25 25" fill="none" xmlns="http://www.w3.org/2000/svg">
<g clip-path="url(#clip0_344_53)">
<path d="M16.9152 12.0483L23.0662 6.70427V17.3313L16.9152 12.0483ZM8.98915 12.9533L11.1492 14.8283C11.4882 15.1163 11.9302 15.2903 12.4132 15.2903H12.4302H12.4432C12.9272 15.2903 13.3692 15.1153 13.7122 14.8253L13.7092 14.8273L15.8692 12.9523L22.4352 18.5913H2.42615L8.98915 12.9533ZM2.41715 5.43727H22.4472L12.8262 13.7933C12.7184 13.8797 12.5842 13.9263 12.4462 13.9253H12.4322H12.4192C12.2806 13.9263 12.146 13.8793 12.0382 13.7923L12.0392 13.7933L2.41715 5.43727ZM1.79615 6.70327L7.94615 12.0473L1.79615 17.3273V6.70327ZM23.3962 4.26227C23.1562 4.14227 22.8742 4.07227 22.5752 4.07227H2.29015C2.00044 4.07341 1.71483 4.1408 1.45515 4.26927L1.46615 4.26427C1.15602 4.41775 0.894849 4.6547 0.712007 4.94848C0.529165 5.24227 0.431902 5.58123 0.431152 5.92727V18.0993C0.431682 18.5919 0.627605 19.0642 0.975933 19.4125C1.32426 19.7608 1.79654 19.9567 2.28915 19.9573H22.5722C23.0648 19.9567 23.537 19.7608 23.8854 19.4125C24.2337 19.0642 24.4296 18.5919 24.4302 18.0993V5.92727C24.4302 5.20027 24.0112 4.57027 23.4012 4.26727L23.3902 4.26227H23.3962Z" fill="#5D5D5D"/>
</g>
<defs>
<clipPath id="clip0_344_53">
<rect width="24" height="24" fill="white" transform="translate(0.431152 0.0722656)"/>
</clipPath>
</defs>
</svg>
