<svg width="1340" height="506" viewBox="0 0 1340 506" fill="none" xmlns="http://www.w3.org/2000/svg">
<g clip-path="url(#clip0_94_431)">
<rect width="1340" height="506" rx="8" fill="white"/>
<path d="M661.129 351.342C582.989 387.84 551.693 485.343 653.156 548.055C654.396 548.821 655.868 549.241 657.325 549.241H1346.1C1350.52 549.241 1354.1 545.659 1354.1 541.241V241.241C1354.1 174.489 1340.33 72.6009 1215.62 128.057C1210.66 130.263 1204.8 127.201 1203.72 121.881C1178.08 -4.06408 1034.41 -33.0231 974.384 78.013C971.541 83.2717 964.094 84.2158 959.893 79.9627C887.409 6.57719 747.747 46.5872 740.862 150.21C740.569 154.618 737.021 158.21 732.62 158.602C666.965 164.448 583.907 240.557 664.261 337.764C667.878 342.14 666.273 348.939 661.129 351.342Z" fill="#EDFEFF"/>
<path d="M623 108H760C768.837 108 776 115.163 776 124V248" stroke="#D47C00" stroke-width="3" stroke-dasharray="6 6"/>
<path d="M829 305H999C1007.84 305 1015 297.837 1015 289V224" stroke="url(#paint0_linear_94_431)" stroke-width="3" stroke-dasharray="6 6"/>
<path d="M1064 169H1222C1230.84 169 1238 176.163 1238 185V351" stroke="#6A06D4" stroke-width="3" stroke-dasharray="6 6"/>
<path d="M160.5 195H335.5C344.337 195 351.5 202.163 351.5 211V316.5" stroke="#01918F" stroke-width="3" stroke-dasharray="6 6"/>
<path d="M418 380H555C563.837 380 571 372.837 571 364V163" stroke="url(#paint1_linear_94_431)" stroke-width="3" stroke-dasharray="6 6"/>
<circle cx="108" cy="197" r="54" fill="white" stroke="#01B9B9" stroke-width="8"/>
<path d="M123 182C121.366 183.563 119.422 184.767 117.294 185.534C115.05 185.93 108.84 183.05 105.78 185.99C105.27 186.5 104.64 187.01 103.98 187.52C102.54 186.89 100.32 185.93 98.7 185C97.08 184.07 93 182 93 182L84 192.5C84 192.5 86.22 195.5 87.6 197.48C88.5 198.8 89.61 200.81 90.33 202.16L89.31 203.36C89.0675 203.846 88.9806 204.394 89.0611 204.931C89.1416 205.468 89.3857 205.967 89.76 206.36C90.1933 206.687 90.7214 206.863 91.264 206.862C91.8066 206.861 92.334 206.682 92.766 206.354C92.6056 206.542 92.4842 206.76 92.4089 206.995C92.3336 207.23 92.3059 207.478 92.3274 207.724C92.3489 207.97 92.4192 208.209 92.5342 208.428C92.6491 208.646 92.8065 208.84 92.997 208.997C93.4557 209.263 93.9767 209.402 94.5068 209.401C95.0369 209.4 95.5573 209.259 96.015 208.991C95.6722 209.418 95.4847 209.949 95.483 210.497C95.4814 211.045 95.6658 211.577 96.006 212.006C96.4482 212.16 96.9199 212.209 97.3842 212.149C97.8484 212.09 98.2927 211.924 98.682 211.664C98.4871 212.123 98.4364 212.631 98.5366 213.119C98.6368 213.608 98.8831 214.055 99.243 214.4C99.7508 214.623 100.307 214.715 100.859 214.667C101.412 214.619 101.944 214.432 102.405 214.124L103.953 212.723C105.369 214.133 107.322 215.006 109.479 215.006L109.662 215.003C110.373 214.943 111.054 214.69 111.632 214.272C112.21 213.854 112.664 213.286 112.944 212.63C113.382 212.798 113.88 212.912 114.408 212.912C115.116 212.912 115.773 212.708 116.328 212.357C118.083 211.196 117.663 210.296 117.663 210.296C118.287 210.565 118.98 210.628 119.643 210.478C120.305 210.328 120.903 209.971 121.35 209.459C121.814 208.984 122.107 208.368 122.182 207.708C122.257 207.047 122.11 206.381 121.764 205.814C121.783 205.825 121.805 205.83 121.827 205.829C123.09 205.829 124.188 205.133 124.761 204.107C125.044 203.378 125.14 202.59 125.04 201.814C124.94 201.038 124.647 200.3 124.188 199.667L124.197 199.682C126.657 199.202 126.567 197.972 127.767 196.172C128.902 194.702 130.316 193.47 131.928 192.548L123 182ZM122.85 203.18C121.53 204.5 120.51 203.93 118.26 202.22C116.01 200.51 111.54 197.3 111.54 197.3C111.723 198.215 112.146 199.01 112.743 199.643C113.7 200.72 116.55 203.18 117.9 204.44C118.74 205.22 120.9 206.78 119.64 207.98C118.38 209.18 117.39 207.98 115.32 206.3C113.25 204.62 108.63 200.48 108.63 200.48C108.605 200.877 108.664 201.274 108.804 201.647C108.944 202.019 109.16 202.357 109.44 202.64C109.95 203.24 112.8 206 114 207.26C115.2 208.52 116.25 209.27 115.23 210.26C114.21 211.25 112.14 209.69 111 208.52C109.23 206.81 105.72 203.63 105.72 203.63L105.717 203.789C105.717 204.641 106.011 205.421 106.506 206.039C107.37 207.173 109.05 208.643 110.07 209.783C111.09 210.923 111.69 211.883 110.07 212.783C108.45 213.683 106.05 211.463 105 210.383V210.377C105.003 210.08 104.896 209.793 104.7 209.57C104.34 209.239 103.898 209.011 103.419 208.912C102.94 208.813 102.444 208.845 101.982 209.006C102.171 208.836 102.323 208.628 102.428 208.396C102.532 208.163 102.587 207.912 102.589 207.657C102.591 207.402 102.539 207.15 102.438 206.916C102.336 206.683 102.187 206.473 102 206.3C101.606 206.002 101.126 205.84 100.631 205.841C100.137 205.841 99.6571 206.004 99.264 206.303C99.4628 206.113 99.6162 205.881 99.713 205.624C99.8097 205.366 99.8472 205.09 99.8227 204.817C99.7982 204.543 99.7123 204.278 99.5715 204.042C99.4306 203.806 99.2383 203.605 99.009 203.453C98.4719 203.116 97.8418 202.957 97.209 203C96.5762 203.043 95.9733 203.286 95.487 203.693C95.812 203.299 95.9723 202.795 95.9343 202.286C95.8962 201.776 95.6629 201.301 95.283 200.96C94.8099 200.522 94.2084 200.249 93.5675 200.179C92.9267 200.11 92.2806 200.249 91.725 200.576L89.73 197.207C88.35 195.017 86.73 192.737 86.73 192.737L93.57 184.427C93.57 184.427 96 185.927 98.01 187.067C99 187.637 100.71 188.387 102 188.987C99.96 190.517 98.25 191.987 98.76 193.007C99.6682 193.661 100.755 194.022 101.874 194.041C102.993 194.06 104.091 193.737 105.021 193.115C106.214 192.32 107.617 191.899 109.05 191.906C110.091 191.906 111.081 192.122 111.978 192.515C113.64 193.637 116.7 196.397 119.49 198.137C123 200.687 123.69 202.337 122.85 203.177V203.18Z" fill="#01B9B9"/>
<path d="M55.0234 266.625H56.8828L59.9922 275.188L63.0938 266.625H64.9609L60.7344 278H59.2422L55.0234 266.625ZM54.0859 266.625H55.9062L56.2344 274.492V278H54.0859V266.625ZM64.0703 266.625H65.8984V278H63.75V274.492L64.0703 266.625ZM71.7266 278.156C71.0859 278.156 70.5104 278.052 70 277.844C69.4896 277.635 69.0547 277.346 68.6953 276.977C68.3411 276.602 68.0677 276.167 67.875 275.672C67.6875 275.172 67.5938 274.635 67.5938 274.062V273.75C67.5938 273.099 67.6875 272.508 67.875 271.977C68.0625 271.44 68.3281 270.979 68.6719 270.594C69.0156 270.208 69.4271 269.911 69.9062 269.703C70.3854 269.495 70.9141 269.391 71.4922 269.391C72.0911 269.391 72.6198 269.492 73.0781 269.695C73.5365 269.893 73.9193 270.174 74.2266 270.539C74.5339 270.904 74.7656 271.341 74.9219 271.852C75.0781 272.357 75.1562 272.917 75.1562 273.531V274.398H68.5312V272.977H73.125V272.82C73.1146 272.492 73.0521 272.193 72.9375 271.922C72.8229 271.646 72.6458 271.427 72.4062 271.266C72.1667 271.099 71.8568 271.016 71.4766 271.016C71.1693 271.016 70.901 271.083 70.6719 271.219C70.4479 271.349 70.2604 271.536 70.1094 271.781C69.9635 272.021 69.8542 272.307 69.7812 272.641C69.7083 272.974 69.6719 273.344 69.6719 273.75V274.062C69.6719 274.417 69.7188 274.745 69.8125 275.047C69.9115 275.349 70.0547 275.612 70.2422 275.836C70.4349 276.055 70.6641 276.227 70.9297 276.352C71.2005 276.471 71.5078 276.531 71.8516 276.531C72.2839 276.531 72.6745 276.448 73.0234 276.281C73.3776 276.109 73.6849 275.857 73.9453 275.523L74.9844 276.602C74.8073 276.862 74.5677 277.112 74.2656 277.352C73.9688 277.591 73.6094 277.786 73.1875 277.938C72.7656 278.083 72.2786 278.156 71.7266 278.156ZM80.3359 278.156C79.6953 278.156 79.1198 278.052 78.6094 277.844C78.099 277.635 77.6641 277.346 77.3047 276.977C76.9505 276.602 76.6771 276.167 76.4844 275.672C76.2969 275.172 76.2031 274.635 76.2031 274.062V273.75C76.2031 273.099 76.2969 272.508 76.4844 271.977C76.6719 271.44 76.9375 270.979 77.2812 270.594C77.625 270.208 78.0365 269.911 78.5156 269.703C78.9948 269.495 79.5234 269.391 80.1016 269.391C80.7005 269.391 81.2292 269.492 81.6875 269.695C82.1458 269.893 82.5286 270.174 82.8359 270.539C83.1432 270.904 83.375 271.341 83.5312 271.852C83.6875 272.357 83.7656 272.917 83.7656 273.531V274.398H77.1406V272.977H81.7344V272.82C81.724 272.492 81.6615 272.193 81.5469 271.922C81.4323 271.646 81.2552 271.427 81.0156 271.266C80.776 271.099 80.4661 271.016 80.0859 271.016C79.7786 271.016 79.5104 271.083 79.2812 271.219C79.0573 271.349 78.8698 271.536 78.7188 271.781C78.5729 272.021 78.4635 272.307 78.3906 272.641C78.3177 272.974 78.2812 273.344 78.2812 273.75V274.062C78.2812 274.417 78.3281 274.745 78.4219 275.047C78.5208 275.349 78.6641 275.612 78.8516 275.836C79.0443 276.055 79.2734 276.227 79.5391 276.352C79.8099 276.471 80.1172 276.531 80.4609 276.531C80.8932 276.531 81.2839 276.448 81.6328 276.281C81.987 276.109 82.2943 275.857 82.5547 275.523L83.5938 276.602C83.4167 276.862 83.1771 277.112 82.875 277.352C82.5781 277.591 82.2188 277.786 81.7969 277.938C81.375 278.083 80.888 278.156 80.3359 278.156ZM89.1484 269.547V271.031H84.3047V269.547H89.1484ZM85.6016 267.469H87.6719V275.562C87.6719 275.812 87.7057 276.005 87.7734 276.141C87.8411 276.276 87.9427 276.367 88.0781 276.414C88.2135 276.461 88.375 276.484 88.5625 276.484C88.6979 276.484 88.8229 276.477 88.9375 276.461C89.0521 276.445 89.1484 276.43 89.2266 276.414L89.2344 277.961C89.0625 278.018 88.8672 278.065 88.6484 278.102C88.4349 278.138 88.1927 278.156 87.9219 278.156C87.4583 278.156 87.0521 278.078 86.7031 277.922C86.3542 277.76 86.0833 277.503 85.8906 277.148C85.6979 276.789 85.6016 276.315 85.6016 275.727V267.469ZM98.5078 269.547V271.031H93.6641V269.547H98.5078ZM94.9609 267.469H97.0312V275.562C97.0312 275.812 97.0651 276.005 97.1328 276.141C97.2005 276.276 97.3021 276.367 97.4375 276.414C97.5729 276.461 97.7344 276.484 97.9219 276.484C98.0573 276.484 98.1823 276.477 98.2969 276.461C98.4115 276.445 98.5078 276.43 98.5859 276.414L98.5938 277.961C98.4219 278.018 98.2266 278.065 98.0078 278.102C97.7943 278.138 97.5521 278.156 97.2812 278.156C96.8177 278.156 96.4115 278.078 96.0625 277.922C95.7135 277.76 95.4427 277.503 95.25 277.148C95.0573 276.789 94.9609 276.315 94.9609 275.727V267.469ZM101.906 266V278H99.8359V266H101.906ZM101.578 273.469H100.969C100.969 272.88 101.047 272.339 101.203 271.844C101.359 271.349 101.581 270.919 101.867 270.555C102.154 270.185 102.495 269.898 102.891 269.695C103.292 269.492 103.734 269.391 104.219 269.391C104.635 269.391 105.013 269.451 105.352 269.57C105.695 269.685 105.99 269.87 106.234 270.125C106.479 270.38 106.667 270.714 106.797 271.125C106.932 271.531 107 272.026 107 272.609V278H104.922V272.594C104.922 272.203 104.865 271.896 104.75 271.672C104.635 271.443 104.471 271.279 104.258 271.18C104.049 271.081 103.792 271.031 103.484 271.031C103.151 271.031 102.865 271.096 102.625 271.227C102.385 271.352 102.188 271.526 102.031 271.75C101.88 271.974 101.766 272.232 101.688 272.523C101.615 272.815 101.578 273.13 101.578 273.469ZM112.617 278.156C111.977 278.156 111.401 278.052 110.891 277.844C110.38 277.635 109.945 277.346 109.586 276.977C109.232 276.602 108.958 276.167 108.766 275.672C108.578 275.172 108.484 274.635 108.484 274.062V273.75C108.484 273.099 108.578 272.508 108.766 271.977C108.953 271.44 109.219 270.979 109.562 270.594C109.906 270.208 110.318 269.911 110.797 269.703C111.276 269.495 111.805 269.391 112.383 269.391C112.982 269.391 113.51 269.492 113.969 269.695C114.427 269.893 114.81 270.174 115.117 270.539C115.424 270.904 115.656 271.341 115.812 271.852C115.969 272.357 116.047 272.917 116.047 273.531V274.398H109.422V272.977H114.016V272.82C114.005 272.492 113.943 272.193 113.828 271.922C113.714 271.646 113.536 271.427 113.297 271.266C113.057 271.099 112.747 271.016 112.367 271.016C112.06 271.016 111.792 271.083 111.562 271.219C111.339 271.349 111.151 271.536 111 271.781C110.854 272.021 110.745 272.307 110.672 272.641C110.599 272.974 110.562 273.344 110.562 273.75V274.062C110.562 274.417 110.609 274.745 110.703 275.047C110.802 275.349 110.945 275.612 111.133 275.836C111.326 276.055 111.555 276.227 111.82 276.352C112.091 276.471 112.398 276.531 112.742 276.531C113.174 276.531 113.565 276.448 113.914 276.281C114.268 276.109 114.576 275.857 114.836 275.523L115.875 276.602C115.698 276.862 115.458 277.112 115.156 277.352C114.859 277.591 114.5 277.786 114.078 277.938C113.656 278.083 113.169 278.156 112.617 278.156ZM128.227 274.258H130.375C130.318 275.018 130.107 275.693 129.742 276.281C129.378 276.865 128.87 277.323 128.219 277.656C127.568 277.99 126.779 278.156 125.852 278.156C125.138 278.156 124.495 278.031 123.922 277.781C123.354 277.526 122.867 277.164 122.461 276.695C122.06 276.221 121.753 275.654 121.539 274.992C121.326 274.326 121.219 273.578 121.219 272.75V271.883C121.219 271.055 121.328 270.307 121.547 269.641C121.766 268.974 122.078 268.406 122.484 267.938C122.896 267.464 123.388 267.099 123.961 266.844C124.539 266.589 125.185 266.461 125.898 266.461C126.826 266.461 127.609 266.633 128.25 266.977C128.891 267.315 129.388 267.781 129.742 268.375C130.096 268.969 130.31 269.651 130.383 270.422H128.234C128.193 269.943 128.089 269.536 127.922 269.203C127.76 268.87 127.516 268.617 127.188 268.445C126.865 268.268 126.435 268.18 125.898 268.18C125.482 268.18 125.115 268.258 124.797 268.414C124.484 268.57 124.224 268.805 124.016 269.117C123.807 269.424 123.651 269.81 123.547 270.273C123.443 270.732 123.391 271.263 123.391 271.867V272.75C123.391 273.328 123.438 273.846 123.531 274.305C123.625 274.763 123.771 275.151 123.969 275.469C124.167 275.786 124.422 276.029 124.734 276.195C125.047 276.362 125.419 276.445 125.852 276.445C126.378 276.445 126.805 276.362 127.133 276.195C127.466 276.029 127.719 275.784 127.891 275.461C128.068 275.138 128.18 274.737 128.227 274.258ZM134.07 266V278H132V266H134.07ZM138.227 269.547V278H136.156V269.547H138.227ZM136.016 267.336C136.016 267.029 136.12 266.773 136.328 266.57C136.542 266.367 136.828 266.266 137.188 266.266C137.547 266.266 137.831 266.367 138.039 266.57C138.253 266.773 138.359 267.029 138.359 267.336C138.359 267.638 138.253 267.891 138.039 268.094C137.831 268.297 137.547 268.398 137.188 268.398C136.828 268.398 136.542 268.297 136.328 268.094C136.12 267.891 136.016 267.638 136.016 267.336ZM143.992 278.156C143.352 278.156 142.776 278.052 142.266 277.844C141.755 277.635 141.32 277.346 140.961 276.977C140.607 276.602 140.333 276.167 140.141 275.672C139.953 275.172 139.859 274.635 139.859 274.062V273.75C139.859 273.099 139.953 272.508 140.141 271.977C140.328 271.44 140.594 270.979 140.938 270.594C141.281 270.208 141.693 269.911 142.172 269.703C142.651 269.495 143.18 269.391 143.758 269.391C144.357 269.391 144.885 269.492 145.344 269.695C145.802 269.893 146.185 270.174 146.492 270.539C146.799 270.904 147.031 271.341 147.188 271.852C147.344 272.357 147.422 272.917 147.422 273.531V274.398H140.797V272.977H145.391V272.82C145.38 272.492 145.318 272.193 145.203 271.922C145.089 271.646 144.911 271.427 144.672 271.266C144.432 271.099 144.122 271.016 143.742 271.016C143.435 271.016 143.167 271.083 142.938 271.219C142.714 271.349 142.526 271.536 142.375 271.781C142.229 272.021 142.12 272.307 142.047 272.641C141.974 272.974 141.938 273.344 141.938 273.75V274.062C141.938 274.417 141.984 274.745 142.078 275.047C142.177 275.349 142.32 275.612 142.508 275.836C142.701 276.055 142.93 276.227 143.195 276.352C143.466 276.471 143.773 276.531 144.117 276.531C144.549 276.531 144.94 276.448 145.289 276.281C145.643 276.109 145.951 275.857 146.211 275.523L147.25 276.602C147.073 276.862 146.833 277.112 146.531 277.352C146.234 277.591 145.875 277.786 145.453 277.938C145.031 278.083 144.544 278.156 143.992 278.156ZM150.828 271.352V278H148.766V269.547H150.703L150.828 271.352ZM150.5 273.469H149.891C149.896 272.854 149.979 272.297 150.141 271.797C150.302 271.297 150.529 270.867 150.82 270.508C151.117 270.148 151.469 269.872 151.875 269.68C152.281 269.487 152.734 269.391 153.234 269.391C153.641 269.391 154.008 269.448 154.336 269.562C154.664 269.677 154.945 269.859 155.18 270.109C155.419 270.359 155.602 270.688 155.727 271.094C155.857 271.495 155.922 271.99 155.922 272.578V278H153.844V272.562C153.844 272.177 153.786 271.872 153.672 271.648C153.562 271.424 153.401 271.266 153.188 271.172C152.979 271.078 152.721 271.031 152.414 271.031C152.096 271.031 151.818 271.096 151.578 271.227C151.344 271.352 151.146 271.526 150.984 271.75C150.828 271.974 150.708 272.232 150.625 272.523C150.542 272.815 150.5 273.13 150.5 273.469ZM161.742 269.547V271.031H156.898V269.547H161.742ZM158.195 267.469H160.266V275.562C160.266 275.812 160.299 276.005 160.367 276.141C160.435 276.276 160.536 276.367 160.672 276.414C160.807 276.461 160.969 276.484 161.156 276.484C161.292 276.484 161.417 276.477 161.531 276.461C161.646 276.445 161.742 276.43 161.82 276.414L161.828 277.961C161.656 278.018 161.461 278.065 161.242 278.102C161.029 278.138 160.786 278.156 160.516 278.156C160.052 278.156 159.646 278.078 159.297 277.922C158.948 277.76 158.677 277.503 158.484 277.148C158.292 276.789 158.195 276.315 158.195 275.727V267.469Z" fill="#4B5CC5"/>
<circle cx="361" cy="375" r="54" fill="white" stroke="#008583" stroke-width="8"/>
<path d="M363 357C355.46 357 349.38 362.9 349 370.32L345.16 375.38C344.68 376 345.16 377 346 377H349V383C349 385.22 350.78 387 353 387H355V393H369V383.62C373.74 381.38 377 376.6 377 371C377 363.28 370.76 357 363 357ZM371.12 370.14L367.2 371.18L370.08 374.08C370.416 374.417 370.604 374.874 370.604 375.35C370.604 375.826 370.416 376.283 370.08 376.62C369.743 376.956 369.286 377.144 368.81 377.144C368.334 377.144 367.877 376.956 367.54 376.62L364.62 373.74L363.6 377.66C363.36 378.64 362.36 379.2 361.42 378.94C361.19 378.882 360.974 378.779 360.785 378.636C360.595 378.493 360.436 378.314 360.317 378.109C360.198 377.904 360.121 377.678 360.09 377.443C360.06 377.207 360.077 376.969 360.14 376.74L361.2 372.8L357.26 373.86C357.031 373.924 356.792 373.942 356.557 373.911C356.321 373.881 356.094 373.804 355.889 373.685C355.684 373.566 355.505 373.406 355.363 373.217C355.22 373.027 355.117 372.81 355.06 372.58C354.8 371.64 355.36 370.64 356.34 370.4L360.26 369.38L357.38 366.46C357.079 366.116 356.92 365.671 356.935 365.215C356.95 364.758 357.138 364.324 357.461 364.001C357.784 363.678 358.218 363.49 358.675 363.475C359.131 363.46 359.576 363.619 359.92 363.92L362.82 366.8L363.86 362.88C363.916 362.655 364.016 362.444 364.154 362.258C364.292 362.072 364.465 361.915 364.664 361.796C364.863 361.677 365.083 361.598 365.313 361.565C365.542 361.531 365.775 361.543 366 361.6C367 361.86 367.56 362.84 367.32 363.82L366.26 367.74L370.18 366.68C370.412 366.62 370.654 366.607 370.892 366.641C371.13 366.675 371.358 366.755 371.565 366.878C371.771 367.001 371.951 367.163 372.094 367.356C372.238 367.548 372.342 367.767 372.4 368C372.457 368.225 372.469 368.458 372.435 368.687C372.402 368.917 372.323 369.137 372.204 369.336C372.085 369.535 371.928 369.708 371.742 369.846C371.556 369.984 371.345 370.084 371.12 370.14Z" fill="#008583"/>
<path d="M326.711 450.93H323.805L323.789 449.414H326.281C326.708 449.414 327.065 449.354 327.352 449.234C327.638 449.115 327.854 448.94 328 448.711C328.151 448.482 328.227 448.203 328.227 447.875C328.227 447.51 328.156 447.214 328.016 446.984C327.88 446.755 327.667 446.589 327.375 446.484C327.083 446.375 326.714 446.32 326.266 446.32H324.5V456H322.352V444.625H326.266C326.911 444.625 327.487 444.688 327.992 444.812C328.503 444.932 328.935 445.12 329.289 445.375C329.643 445.63 329.911 445.951 330.094 446.336C330.281 446.721 330.375 447.18 330.375 447.711C330.375 448.18 330.266 448.612 330.047 449.008C329.833 449.398 329.503 449.716 329.055 449.961C328.612 450.206 328.049 450.346 327.367 450.383L326.711 450.93ZM326.617 456H323.172L324.07 454.312H326.617C327.044 454.312 327.396 454.242 327.672 454.102C327.953 453.961 328.161 453.768 328.297 453.523C328.438 453.273 328.508 452.987 328.508 452.664C328.508 452.31 328.445 452.003 328.32 451.742C328.201 451.482 328.008 451.281 327.742 451.141C327.482 451 327.138 450.93 326.711 450.93H324.477L324.492 449.414H327.336L327.828 450C328.484 450.005 329.018 450.135 329.43 450.391C329.846 450.646 330.154 450.974 330.352 451.375C330.549 451.776 330.648 452.208 330.648 452.672C330.648 453.401 330.49 454.013 330.172 454.508C329.859 455.003 329.401 455.375 328.797 455.625C328.198 455.875 327.471 456 326.617 456ZM334.414 449.273V456H332.352V447.547H334.305L334.414 449.273ZM336.984 447.492L336.953 449.414C336.839 449.393 336.708 449.378 336.562 449.367C336.422 449.357 336.289 449.352 336.164 449.352C335.846 449.352 335.568 449.396 335.328 449.484C335.089 449.568 334.888 449.69 334.727 449.852C334.57 450.013 334.451 450.211 334.367 450.445C334.284 450.674 334.237 450.935 334.227 451.227L333.781 451.172C333.781 450.635 333.836 450.138 333.945 449.68C334.055 449.221 334.214 448.82 334.422 448.477C334.63 448.133 334.891 447.867 335.203 447.68C335.521 447.487 335.885 447.391 336.297 447.391C336.411 447.391 336.534 447.401 336.664 447.422C336.799 447.438 336.906 447.461 336.984 447.492ZM342.508 454.203V450.305C342.508 450.018 342.458 449.771 342.359 449.562C342.26 449.354 342.109 449.193 341.906 449.078C341.703 448.964 341.445 448.906 341.133 448.906C340.857 448.906 340.615 448.953 340.406 449.047C340.203 449.141 340.047 449.273 339.938 449.445C339.828 449.612 339.773 449.805 339.773 450.023H337.703C337.703 449.674 337.786 449.344 337.953 449.031C338.12 448.714 338.357 448.432 338.664 448.188C338.977 447.938 339.349 447.742 339.781 447.602C340.219 447.461 340.708 447.391 341.25 447.391C341.891 447.391 342.461 447.5 342.961 447.719C343.466 447.932 343.862 448.255 344.148 448.688C344.44 449.12 344.586 449.664 344.586 450.32V454.008C344.586 454.43 344.612 454.792 344.664 455.094C344.721 455.391 344.805 455.648 344.914 455.867V456H342.812C342.714 455.786 342.638 455.516 342.586 455.188C342.534 454.854 342.508 454.526 342.508 454.203ZM342.797 450.852L342.812 452.078H341.508C341.185 452.078 340.901 452.112 340.656 452.18C340.411 452.242 340.211 452.336 340.055 452.461C339.898 452.581 339.781 452.727 339.703 452.898C339.625 453.065 339.586 453.255 339.586 453.469C339.586 453.677 339.633 453.865 339.727 454.031C339.826 454.198 339.966 454.331 340.148 454.43C340.336 454.523 340.555 454.57 340.805 454.57C341.169 454.57 341.487 454.497 341.758 454.352C342.029 454.201 342.24 454.018 342.391 453.805C342.542 453.591 342.622 453.388 342.633 453.195L343.227 454.086C343.154 454.299 343.044 454.526 342.898 454.766C342.753 455.005 342.565 455.229 342.336 455.438C342.107 455.646 341.831 455.818 341.508 455.953C341.185 456.089 340.81 456.156 340.383 456.156C339.836 456.156 339.346 456.047 338.914 455.828C338.482 455.609 338.141 455.31 337.891 454.93C337.641 454.549 337.516 454.117 337.516 453.633C337.516 453.185 337.599 452.789 337.766 452.445C337.932 452.102 338.18 451.812 338.508 451.578C338.836 451.339 339.242 451.159 339.727 451.039C340.216 450.914 340.776 450.852 341.406 450.852H342.797ZM348.633 447.547V456H346.562V447.547H348.633ZM346.422 445.336C346.422 445.029 346.526 444.773 346.734 444.57C346.948 444.367 347.234 444.266 347.594 444.266C347.953 444.266 348.237 444.367 348.445 444.57C348.659 444.773 348.766 445.029 348.766 445.336C348.766 445.638 348.659 445.891 348.445 446.094C348.237 446.297 347.953 446.398 347.594 446.398C347.234 446.398 346.948 446.297 346.734 446.094C346.526 445.891 346.422 445.638 346.422 445.336ZM352.625 449.352V456H350.562V447.547H352.5L352.625 449.352ZM352.297 451.469H351.688C351.693 450.854 351.776 450.297 351.938 449.797C352.099 449.297 352.326 448.867 352.617 448.508C352.914 448.148 353.266 447.872 353.672 447.68C354.078 447.487 354.531 447.391 355.031 447.391C355.438 447.391 355.805 447.448 356.133 447.562C356.461 447.677 356.742 447.859 356.977 448.109C357.216 448.359 357.398 448.688 357.523 449.094C357.654 449.495 357.719 449.99 357.719 450.578V456H355.641V450.562C355.641 450.177 355.583 449.872 355.469 449.648C355.359 449.424 355.198 449.266 354.984 449.172C354.776 449.078 354.518 449.031 354.211 449.031C353.893 449.031 353.615 449.096 353.375 449.227C353.141 449.352 352.943 449.526 352.781 449.75C352.625 449.974 352.505 450.232 352.422 450.523C352.339 450.815 352.297 451.13 352.297 451.469ZM364.188 453.688C364.188 453.51 364.141 453.352 364.047 453.211C363.953 453.07 363.776 452.943 363.516 452.828C363.26 452.708 362.885 452.596 362.391 452.492C361.953 452.398 361.549 452.281 361.18 452.141C360.81 452 360.492 451.831 360.227 451.633C359.961 451.43 359.753 451.193 359.602 450.922C359.456 450.646 359.383 450.328 359.383 449.969C359.383 449.62 359.458 449.292 359.609 448.984C359.76 448.672 359.979 448.398 360.266 448.164C360.552 447.924 360.901 447.737 361.312 447.602C361.724 447.461 362.188 447.391 362.703 447.391C363.422 447.391 364.039 447.508 364.555 447.742C365.076 447.977 365.474 448.299 365.75 448.711C366.026 449.117 366.164 449.576 366.164 450.086H364.102C364.102 449.862 364.049 449.659 363.945 449.477C363.846 449.294 363.693 449.148 363.484 449.039C363.276 448.924 363.013 448.867 362.695 448.867C362.409 448.867 362.167 448.914 361.969 449.008C361.776 449.102 361.63 449.224 361.531 449.375C361.432 449.526 361.383 449.693 361.383 449.875C361.383 450.01 361.409 450.133 361.461 450.242C361.518 450.346 361.609 450.443 361.734 450.531C361.859 450.62 362.029 450.701 362.242 450.773C362.461 450.846 362.729 450.917 363.047 450.984C363.677 451.109 364.227 451.276 364.695 451.484C365.169 451.688 365.539 451.958 365.805 452.297C366.07 452.635 366.203 453.068 366.203 453.594C366.203 453.969 366.122 454.312 365.961 454.625C365.799 454.932 365.565 455.201 365.258 455.43C364.951 455.659 364.583 455.839 364.156 455.969C363.729 456.094 363.247 456.156 362.711 456.156C361.935 456.156 361.279 456.018 360.742 455.742C360.206 455.461 359.799 455.107 359.523 454.68C359.247 454.247 359.109 453.799 359.109 453.336H361.086C361.102 453.664 361.19 453.927 361.352 454.125C361.513 454.323 361.716 454.466 361.961 454.555C362.211 454.638 362.474 454.68 362.75 454.68C363.062 454.68 363.326 454.638 363.539 454.555C363.753 454.466 363.914 454.349 364.023 454.203C364.133 454.052 364.188 453.88 364.188 453.688ZM371.773 447.547V449.031H366.93V447.547H371.773ZM368.227 445.469H370.297V453.562C370.297 453.812 370.331 454.005 370.398 454.141C370.466 454.276 370.568 454.367 370.703 454.414C370.839 454.461 371 454.484 371.188 454.484C371.323 454.484 371.448 454.477 371.562 454.461C371.677 454.445 371.773 454.43 371.852 454.414L371.859 455.961C371.688 456.018 371.492 456.065 371.273 456.102C371.06 456.138 370.818 456.156 370.547 456.156C370.083 456.156 369.677 456.078 369.328 455.922C368.979 455.76 368.708 455.503 368.516 455.148C368.323 454.789 368.227 454.315 368.227 453.727V445.469ZM375.211 449.273V456H373.148V447.547H375.102L375.211 449.273ZM377.781 447.492L377.75 449.414C377.635 449.393 377.505 449.378 377.359 449.367C377.219 449.357 377.086 449.352 376.961 449.352C376.643 449.352 376.365 449.396 376.125 449.484C375.885 449.568 375.685 449.69 375.523 449.852C375.367 450.013 375.247 450.211 375.164 450.445C375.081 450.674 375.034 450.935 375.023 451.227L374.578 451.172C374.578 450.635 374.633 450.138 374.742 449.68C374.852 449.221 375.01 448.82 375.219 448.477C375.427 448.133 375.688 447.867 376 447.68C376.318 447.487 376.682 447.391 377.094 447.391C377.208 447.391 377.331 447.401 377.461 447.422C377.596 447.438 377.703 447.461 377.781 447.492ZM378.328 451.859V451.695C378.328 451.076 378.417 450.505 378.594 449.984C378.771 449.458 379.029 449.003 379.367 448.617C379.706 448.232 380.12 447.932 380.609 447.719C381.099 447.5 381.656 447.391 382.281 447.391C382.917 447.391 383.479 447.5 383.969 447.719C384.464 447.932 384.88 448.232 385.219 448.617C385.557 449.003 385.815 449.458 385.992 449.984C386.169 450.505 386.258 451.076 386.258 451.695V451.859C386.258 452.474 386.169 453.044 385.992 453.57C385.815 454.091 385.557 454.547 385.219 454.938C384.88 455.323 384.466 455.622 383.977 455.836C383.487 456.049 382.927 456.156 382.297 456.156C381.672 456.156 381.112 456.049 380.617 455.836C380.122 455.622 379.706 455.323 379.367 454.938C379.029 454.547 378.771 454.091 378.594 453.57C378.417 453.044 378.328 452.474 378.328 451.859ZM380.391 451.695V451.859C380.391 452.229 380.427 452.576 380.5 452.898C380.573 453.221 380.685 453.505 380.836 453.75C380.987 453.995 381.182 454.188 381.422 454.328C381.667 454.464 381.958 454.531 382.297 454.531C382.63 454.531 382.917 454.464 383.156 454.328C383.396 454.188 383.591 453.995 383.742 453.75C383.898 453.505 384.013 453.221 384.086 452.898C384.159 452.576 384.195 452.229 384.195 451.859V451.695C384.195 451.331 384.159 450.99 384.086 450.672C384.013 450.349 383.898 450.065 383.742 449.82C383.591 449.57 383.393 449.375 383.148 449.234C382.909 449.089 382.62 449.016 382.281 449.016C381.948 449.016 381.661 449.089 381.422 449.234C381.182 449.375 380.987 449.57 380.836 449.82C380.685 450.065 380.573 450.349 380.5 450.672C380.427 450.99 380.391 451.331 380.391 451.695ZM389.812 449.281V456H387.75V447.547H389.695L389.812 449.281ZM389.508 451.469H388.875C388.875 450.88 388.945 450.339 389.086 449.844C389.232 449.349 389.445 448.919 389.727 448.555C390.008 448.185 390.354 447.898 390.766 447.695C391.182 447.492 391.664 447.391 392.211 447.391C392.591 447.391 392.94 447.448 393.258 447.562C393.576 447.672 393.849 447.846 394.078 448.086C394.312 448.32 394.492 448.628 394.617 449.008C394.742 449.383 394.805 449.833 394.805 450.359V456H392.742V450.57C392.742 450.174 392.685 449.865 392.57 449.641C392.461 449.417 392.302 449.26 392.094 449.172C391.885 449.078 391.635 449.031 391.344 449.031C391.021 449.031 390.742 449.096 390.508 449.227C390.279 449.352 390.089 449.526 389.938 449.75C389.792 449.974 389.682 450.232 389.609 450.523C389.542 450.815 389.508 451.13 389.508 451.469ZM394.648 451.086L393.797 451.242C393.802 450.711 393.875 450.214 394.016 449.75C394.156 449.281 394.362 448.872 394.633 448.523C394.909 448.169 395.25 447.893 395.656 447.695C396.068 447.492 396.542 447.391 397.078 447.391C397.495 447.391 397.87 447.451 398.203 447.57C398.542 447.685 398.831 447.87 399.07 448.125C399.31 448.375 399.492 448.701 399.617 449.102C399.747 449.503 399.812 449.992 399.812 450.57V456H397.734V450.562C397.734 450.151 397.677 449.836 397.562 449.617C397.453 449.398 397.294 449.247 397.086 449.164C396.878 449.076 396.633 449.031 396.352 449.031C396.065 449.031 395.815 449.086 395.602 449.195C395.393 449.299 395.216 449.445 395.07 449.633C394.93 449.82 394.823 450.039 394.75 450.289C394.682 450.534 394.648 450.799 394.648 451.086Z" fill="#4B5CC5"/>
<path d="M518.484 35H516.031L516.047 33.3125H518.484C519.146 33.3125 519.701 33.1667 520.148 32.875C520.596 32.5781 520.935 32.1536 521.164 31.6016C521.393 31.0443 521.508 30.3776 521.508 29.6016V29.0156C521.508 28.4167 521.443 27.888 521.312 27.4297C521.182 26.9714 520.99 26.5859 520.734 26.2734C520.484 25.9609 520.174 25.724 519.805 25.5625C519.435 25.401 519.01 25.3203 518.531 25.3203H515.984V23.625H518.531C519.292 23.625 519.984 23.7526 520.609 24.0078C521.24 24.263 521.784 24.6302 522.242 25.1094C522.706 25.5833 523.06 26.151 523.305 26.8125C523.555 27.474 523.68 28.2135 523.68 29.0312V29.6016C523.68 30.4141 523.555 31.1536 523.305 31.8203C523.06 32.4818 522.706 33.0495 522.242 33.5234C521.784 33.9974 521.237 34.362 520.602 34.6172C519.966 34.8724 519.26 35 518.484 35ZM517.234 23.625V35H515.086V23.625H517.234ZM529.148 35.1562C528.508 35.1562 527.932 35.0521 527.422 34.8438C526.911 34.6354 526.477 34.3464 526.117 33.9766C525.763 33.6016 525.49 33.1667 525.297 32.6719C525.109 32.1719 525.016 31.6354 525.016 31.0625V30.75C525.016 30.099 525.109 29.5078 525.297 28.9766C525.484 28.4401 525.75 27.9792 526.094 27.5938C526.438 27.2083 526.849 26.9115 527.328 26.7031C527.807 26.4948 528.336 26.3906 528.914 26.3906C529.513 26.3906 530.042 26.4922 530.5 26.6953C530.958 26.8932 531.341 27.1745 531.648 27.5391C531.956 27.9036 532.188 28.3411 532.344 28.8516C532.5 29.3568 532.578 29.9167 532.578 30.5312V31.3984H525.953V29.9766H530.547V29.8203C530.536 29.4922 530.474 29.1927 530.359 28.9219C530.245 28.6458 530.068 28.4271 529.828 28.2656C529.589 28.099 529.279 28.0156 528.898 28.0156C528.591 28.0156 528.323 28.0833 528.094 28.2188C527.87 28.349 527.682 28.5365 527.531 28.7812C527.385 29.0208 527.276 29.3073 527.203 29.6406C527.13 29.974 527.094 30.3438 527.094 30.75V31.0625C527.094 31.4167 527.141 31.7448 527.234 32.0469C527.333 32.349 527.477 32.612 527.664 32.8359C527.857 33.0547 528.086 33.2266 528.352 33.3516C528.622 33.4714 528.93 33.5312 529.273 33.5312C529.706 33.5312 530.096 33.4479 530.445 33.2812C530.799 33.1094 531.107 32.8568 531.367 32.5234L532.406 33.6016C532.229 33.862 531.99 34.112 531.688 34.3516C531.391 34.5911 531.031 34.7865 530.609 34.9375C530.188 35.0833 529.701 35.1562 529.148 35.1562ZM538.609 32.6875C538.609 32.5104 538.562 32.3516 538.469 32.2109C538.375 32.0703 538.198 31.9427 537.938 31.8281C537.682 31.7083 537.307 31.5964 536.812 31.4922C536.375 31.3984 535.971 31.2812 535.602 31.1406C535.232 31 534.914 30.8307 534.648 30.6328C534.383 30.4297 534.174 30.1927 534.023 29.9219C533.878 29.6458 533.805 29.3281 533.805 28.9688C533.805 28.6198 533.88 28.2917 534.031 27.9844C534.182 27.6719 534.401 27.3984 534.688 27.1641C534.974 26.9245 535.323 26.737 535.734 26.6016C536.146 26.4609 536.609 26.3906 537.125 26.3906C537.844 26.3906 538.461 26.5078 538.977 26.7422C539.497 26.9766 539.896 27.2995 540.172 27.7109C540.448 28.1172 540.586 28.5755 540.586 29.0859H538.523C538.523 28.862 538.471 28.6589 538.367 28.4766C538.268 28.2943 538.115 28.1484 537.906 28.0391C537.698 27.9245 537.435 27.8672 537.117 27.8672C536.831 27.8672 536.589 27.9141 536.391 28.0078C536.198 28.1016 536.052 28.224 535.953 28.375C535.854 28.526 535.805 28.6927 535.805 28.875C535.805 29.0104 535.831 29.1328 535.883 29.2422C535.94 29.3464 536.031 29.4427 536.156 29.5312C536.281 29.6198 536.451 29.7005 536.664 29.7734C536.883 29.8464 537.151 29.9167 537.469 29.9844C538.099 30.1094 538.648 30.276 539.117 30.4844C539.591 30.6875 539.961 30.9583 540.227 31.2969C540.492 31.6354 540.625 32.0677 540.625 32.5938C540.625 32.9688 540.544 33.3125 540.383 33.625C540.221 33.9323 539.987 34.2005 539.68 34.4297C539.372 34.6589 539.005 34.8385 538.578 34.9688C538.151 35.0938 537.669 35.1562 537.133 35.1562C536.357 35.1562 535.701 35.0182 535.164 34.7422C534.628 34.4609 534.221 34.1068 533.945 33.6797C533.669 33.2474 533.531 32.7995 533.531 32.3359H535.508C535.523 32.6641 535.612 32.9271 535.773 33.125C535.935 33.3229 536.138 33.4661 536.383 33.5547C536.633 33.638 536.896 33.6797 537.172 33.6797C537.484 33.6797 537.747 33.638 537.961 33.5547C538.174 33.4661 538.336 33.349 538.445 33.2031C538.555 33.0521 538.609 32.8802 538.609 32.6875ZM544.383 26.5469V35H542.312V26.5469H544.383ZM542.172 24.3359C542.172 24.0286 542.276 23.7734 542.484 23.5703C542.698 23.3672 542.984 23.2656 543.344 23.2656C543.703 23.2656 543.987 23.3672 544.195 23.5703C544.409 23.7734 544.516 24.0286 544.516 24.3359C544.516 24.638 544.409 24.8906 544.195 25.0938C543.987 25.2969 543.703 25.3984 543.344 25.3984C542.984 25.3984 542.698 25.2969 542.484 25.0938C542.276 24.8906 542.172 24.638 542.172 24.3359ZM551.727 26.5469H553.602V34.7422C553.602 35.5078 553.435 36.1562 553.102 36.6875C552.773 37.224 552.312 37.6302 551.719 37.9062C551.125 38.1875 550.435 38.3281 549.648 38.3281C549.31 38.3281 548.943 38.2812 548.547 38.1875C548.156 38.0938 547.779 37.9453 547.414 37.7422C547.055 37.5443 546.755 37.2865 546.516 36.9688L547.445 35.75C547.727 36.0781 548.044 36.3255 548.398 36.4922C548.753 36.6641 549.135 36.75 549.547 36.75C549.964 36.75 550.318 36.6719 550.609 36.5156C550.906 36.3646 551.133 36.1406 551.289 35.8438C551.451 35.5521 551.531 35.1927 551.531 34.7656V28.4766L551.727 26.5469ZM546.016 30.875V30.7109C546.016 30.0651 546.094 29.4792 546.25 28.9531C546.406 28.4219 546.63 27.9661 546.922 27.5859C547.219 27.2057 547.576 26.9115 547.992 26.7031C548.414 26.4948 548.888 26.3906 549.414 26.3906C549.971 26.3906 550.44 26.4922 550.82 26.6953C551.206 26.8984 551.523 27.1875 551.773 27.5625C552.029 27.9375 552.227 28.3828 552.367 28.8984C552.513 29.4089 552.625 29.9714 552.703 30.5859V31.0312C552.63 31.6302 552.513 32.1797 552.352 32.6797C552.195 33.1797 551.987 33.6172 551.727 33.9922C551.466 34.362 551.143 34.6484 550.758 34.8516C550.372 35.0547 549.919 35.1562 549.398 35.1562C548.878 35.1562 548.409 35.0495 547.992 34.8359C547.576 34.6224 547.219 34.3229 546.922 33.9375C546.63 33.5521 546.406 33.099 546.25 32.5781C546.094 32.0573 546.016 31.4896 546.016 30.875ZM548.078 30.7109V30.875C548.078 31.2396 548.115 31.5807 548.188 31.8984C548.26 32.2161 548.372 32.4974 548.523 32.7422C548.674 32.9818 548.865 33.1693 549.094 33.3047C549.323 33.4401 549.596 33.5078 549.914 33.5078C550.341 33.5078 550.69 33.4193 550.961 33.2422C551.237 33.0599 551.445 32.8125 551.586 32.5C551.732 32.1823 551.826 31.8255 551.867 31.4297V30.2031C551.841 29.8906 551.784 29.6016 551.695 29.3359C551.612 29.0703 551.495 28.8411 551.344 28.6484C551.193 28.4557 551 28.3047 550.766 28.1953C550.531 28.0859 550.253 28.0312 549.93 28.0312C549.617 28.0312 549.344 28.1016 549.109 28.2422C548.875 28.3776 548.682 28.5677 548.531 28.8125C548.38 29.0573 548.266 29.3411 548.188 29.6641C548.115 29.987 548.078 30.3359 548.078 30.7109ZM557.484 28.3516V35H555.422V26.5469H557.359L557.484 28.3516ZM557.156 30.4688H556.547C556.552 29.8542 556.635 29.2969 556.797 28.7969C556.958 28.2969 557.185 27.8672 557.477 27.5078C557.773 27.1484 558.125 26.8724 558.531 26.6797C558.938 26.487 559.391 26.3906 559.891 26.3906C560.297 26.3906 560.664 26.4479 560.992 26.5625C561.32 26.6771 561.602 26.8594 561.836 27.1094C562.076 27.3594 562.258 27.6875 562.383 28.0938C562.513 28.4948 562.578 28.9896 562.578 29.5781V35H560.5V29.5625C560.5 29.1771 560.443 28.8724 560.328 28.6484C560.219 28.4245 560.057 28.2656 559.844 28.1719C559.635 28.0781 559.378 28.0312 559.07 28.0312C558.753 28.0312 558.474 28.0964 558.234 28.2266C558 28.3516 557.802 28.526 557.641 28.75C557.484 28.974 557.365 29.2318 557.281 29.5234C557.198 29.8151 557.156 30.1302 557.156 30.4688ZM569.477 23.625H571.336L574.445 32.1875L577.547 23.625H579.414L575.188 35H573.695L569.477 23.625ZM568.539 23.625H570.359L570.688 31.4922V35H568.539V23.625ZM578.523 23.625H580.352V35H578.203V31.4922L578.523 23.625ZM582.016 30.8594V30.6953C582.016 30.0755 582.104 29.5052 582.281 28.9844C582.458 28.4583 582.716 28.0026 583.055 27.6172C583.393 27.2318 583.807 26.9323 584.297 26.7188C584.786 26.5 585.344 26.3906 585.969 26.3906C586.604 26.3906 587.167 26.5 587.656 26.7188C588.151 26.9323 588.568 27.2318 588.906 27.6172C589.245 28.0026 589.503 28.4583 589.68 28.9844C589.857 29.5052 589.945 30.0755 589.945 30.6953V30.8594C589.945 31.474 589.857 32.0443 589.68 32.5703C589.503 33.0911 589.245 33.5469 588.906 33.9375C588.568 34.3229 588.154 34.6224 587.664 34.8359C587.174 35.0495 586.615 35.1562 585.984 35.1562C585.359 35.1562 584.799 35.0495 584.305 34.8359C583.81 34.6224 583.393 34.3229 583.055 33.9375C582.716 33.5469 582.458 33.0911 582.281 32.5703C582.104 32.0443 582.016 31.474 582.016 30.8594ZM584.078 30.6953V30.8594C584.078 31.2292 584.115 31.5755 584.188 31.8984C584.26 32.2214 584.372 32.5052 584.523 32.75C584.674 32.9948 584.87 33.1875 585.109 33.3281C585.354 33.4635 585.646 33.5312 585.984 33.5312C586.318 33.5312 586.604 33.4635 586.844 33.3281C587.083 33.1875 587.279 32.9948 587.43 32.75C587.586 32.5052 587.701 32.2214 587.773 31.8984C587.846 31.5755 587.883 31.2292 587.883 30.8594V30.6953C587.883 30.3307 587.846 29.9896 587.773 29.6719C587.701 29.349 587.586 29.0651 587.43 28.8203C587.279 28.5703 587.081 28.375 586.836 28.2344C586.596 28.0885 586.307 28.0156 585.969 28.0156C585.635 28.0156 585.349 28.0885 585.109 28.2344C584.87 28.375 584.674 28.5703 584.523 28.8203C584.372 29.0651 584.26 29.349 584.188 29.6719C584.115 29.9896 584.078 30.3307 584.078 30.6953ZM594.914 33.5312C595.206 33.5312 595.466 33.474 595.695 33.3594C595.924 33.2448 596.107 33.0833 596.242 32.875C596.383 32.6667 596.458 32.4245 596.469 32.1484H598.414C598.404 32.7214 598.242 33.2344 597.93 33.6875C597.617 34.1406 597.201 34.5 596.68 34.7656C596.164 35.026 595.586 35.1562 594.945 35.1562C594.294 35.1562 593.727 35.0469 593.242 34.8281C592.758 34.6094 592.354 34.3047 592.031 33.9141C591.714 33.5234 591.474 33.0703 591.312 32.5547C591.156 32.0391 591.078 31.487 591.078 30.8984V30.6484C591.078 30.0599 591.156 29.5078 591.312 28.9922C591.474 28.4766 591.714 28.0234 592.031 27.6328C592.354 27.2422 592.758 26.9375 593.242 26.7188C593.727 26.5 594.292 26.3906 594.938 26.3906C595.62 26.3906 596.219 26.5234 596.734 26.7891C597.255 27.0547 597.661 27.4297 597.953 27.9141C598.25 28.3984 598.404 28.9688 598.414 29.625H596.469C596.458 29.3229 596.391 29.0521 596.266 28.8125C596.141 28.5729 595.964 28.3802 595.734 28.2344C595.505 28.0885 595.227 28.0156 594.898 28.0156C594.549 28.0156 594.258 28.0885 594.023 28.2344C593.794 28.3802 593.615 28.5807 593.484 28.8359C593.359 29.0859 593.271 29.3672 593.219 29.6797C593.172 29.987 593.148 30.3099 593.148 30.6484V30.8984C593.148 31.2422 593.172 31.5703 593.219 31.8828C593.271 32.1953 593.359 32.4766 593.484 32.7266C593.615 32.9714 593.794 33.1667 594.023 33.3125C594.258 33.4583 594.555 33.5312 594.914 33.5312ZM601.852 22.9922V35H599.789V22.9922H601.852ZM607.148 26.5469L603.469 30.6797L601.477 32.7031L600.82 31.1016L602.359 29.1641L604.656 26.5469H607.148ZM605.039 35L602.422 31.0625L603.797 29.7266L607.43 35H605.039ZM613.273 32.9922V26.5469H615.352V35H613.398L613.273 32.9922ZM613.539 31.2422L614.18 31.2266C614.18 31.7943 614.117 32.3177 613.992 32.7969C613.867 33.276 613.672 33.6927 613.406 34.0469C613.146 34.3958 612.815 34.6693 612.414 34.8672C612.013 35.0599 611.539 35.1562 610.992 35.1562C610.576 35.1562 610.195 35.099 609.852 34.9844C609.508 34.8646 609.211 34.6797 608.961 34.4297C608.716 34.1745 608.526 33.849 608.391 33.4531C608.255 33.0521 608.188 32.5703 608.188 32.0078V26.5469H610.25V32.0234C610.25 32.3047 610.281 32.5391 610.344 32.7266C610.411 32.9141 610.503 33.0677 610.617 33.1875C610.737 33.3021 610.875 33.3854 611.031 33.4375C611.193 33.4844 611.365 33.5078 611.547 33.5078C612.047 33.5078 612.44 33.4089 612.727 33.2109C613.018 33.0078 613.227 32.737 613.352 32.3984C613.477 32.0547 613.539 31.6693 613.539 31.2422ZM619.242 28.1719V38.25H617.172V26.5469H619.086L619.242 28.1719ZM624.672 30.6875V30.8516C624.672 31.4661 624.599 32.0365 624.453 32.5625C624.312 33.0833 624.104 33.5391 623.828 33.9297C623.552 34.3151 623.208 34.6172 622.797 34.8359C622.391 35.0495 621.922 35.1562 621.391 35.1562C620.87 35.1562 620.417 35.0573 620.031 34.8594C619.646 34.6562 619.32 34.3698 619.055 34C618.789 33.6302 618.576 33.2005 618.414 32.7109C618.258 32.2161 618.141 31.6771 618.062 31.0938V30.5703C618.141 29.9505 618.258 29.388 618.414 28.8828C618.576 28.3724 618.789 27.9323 619.055 27.5625C619.32 27.1875 619.643 26.8984 620.023 26.6953C620.409 26.4922 620.859 26.3906 621.375 26.3906C621.911 26.3906 622.383 26.4922 622.789 26.6953C623.201 26.8984 623.547 27.1901 623.828 27.5703C624.109 27.9505 624.32 28.4036 624.461 28.9297C624.602 29.4557 624.672 30.0417 624.672 30.6875ZM622.602 30.8516V30.6875C622.602 30.3125 622.568 29.9661 622.5 29.6484C622.432 29.3255 622.328 29.0443 622.188 28.8047C622.047 28.5599 621.865 28.3698 621.641 28.2344C621.417 28.099 621.146 28.0312 620.828 28.0312C620.51 28.0312 620.237 28.0833 620.008 28.1875C619.779 28.2917 619.591 28.4401 619.445 28.6328C619.299 28.8255 619.185 29.0547 619.102 29.3203C619.023 29.5807 618.971 29.8698 618.945 30.1875V31.4844C618.992 31.8698 619.083 32.2161 619.219 32.5234C619.354 32.8307 619.552 33.0755 619.812 33.2578C620.078 33.4401 620.422 33.5312 620.844 33.5312C621.161 33.5312 621.432 33.4609 621.656 33.3203C621.88 33.1797 622.062 32.987 622.203 32.7422C622.344 32.4922 622.445 32.2057 622.508 31.8828C622.57 31.5599 622.602 31.2161 622.602 30.8516Z" fill="#4B5CC5"/>
<circle cx="570" cy="105" r="54" fill="white" stroke="#E09F35" stroke-width="8"/>
<path d="M561.65 109.238C559.896 107.936 558.471 106.242 557.49 104.29C556.509 102.339 555.998 100.184 556 98C556 90.268 562.268 84 570 84C577.732 84 584 90.268 584 98C584 102.535 581.843 106.567 578.5 109.125" stroke="#E09F35" stroke-width="2" stroke-linecap="round" stroke-linejoin="round"/>
<path fill-rule="evenodd" clip-rule="evenodd" d="M570 98L590 125H550L570 98Z" fill="#E09F35" stroke="#E09F35" stroke-width="2" stroke-linecap="round" stroke-linejoin="round"/>
<circle cx="779" cy="307" r="54" fill="white" stroke="#D67D00" stroke-width="8"/>
<path fill-rule="evenodd" clip-rule="evenodd" d="M758.816 305.394C759.242 304.922 759.838 304.637 760.474 304.604C761.109 304.571 761.732 304.791 762.205 305.217L770.206 312.417C770.665 312.846 770.937 313.439 770.964 314.066C770.99 314.694 770.77 315.307 770.349 315.774C769.929 316.241 769.342 316.525 768.715 316.564C768.088 316.603 767.47 316.394 766.995 315.983L758.994 308.783C758.521 308.357 758.237 307.761 758.203 307.126C758.17 306.49 758.39 305.867 758.816 305.394Z" fill="#D67D00"/>
<path fill-rule="evenodd" clip-rule="evenodd" d="M770.384 298.194C770.81 298.667 771.03 299.29 770.997 299.926C770.964 300.561 770.679 301.157 770.206 301.583L762.205 308.783C761.972 309.001 761.698 309.171 761.399 309.282C761.099 309.393 760.781 309.443 760.462 309.43C760.143 309.416 759.83 309.339 759.542 309.203C759.253 309.067 758.994 308.875 758.781 308.638C758.567 308.4 758.403 308.123 758.298 307.822C758.193 307.52 758.149 307.201 758.169 306.882C758.189 306.564 758.272 306.253 758.413 305.967C758.555 305.681 758.752 305.426 758.994 305.217L766.995 298.017C767.468 297.591 768.091 297.371 768.726 297.404C769.362 297.437 769.958 297.722 770.384 298.194ZM799.184 305.394C799.61 305.867 799.83 306.49 799.797 307.126C799.764 307.761 799.479 308.357 799.006 308.783L791.005 315.983C790.772 316.201 790.498 316.371 790.199 316.482C789.899 316.593 789.581 316.643 789.262 316.63C788.943 316.616 788.63 316.539 788.342 316.403C788.053 316.267 787.794 316.075 787.581 315.838C787.367 315.6 787.203 315.323 787.098 315.022C786.993 314.72 786.949 314.401 786.969 314.082C786.989 313.764 787.072 313.453 787.213 313.167C787.355 312.881 787.552 312.626 787.794 312.417L795.795 305.217C796.268 304.791 796.891 304.571 797.526 304.604C798.162 304.637 798.758 304.922 799.184 305.394Z" fill="#D67D00"/>
<path fill-rule="evenodd" clip-rule="evenodd" d="M787.616 298.194C788.042 297.722 788.638 297.437 789.274 297.404C789.909 297.371 790.532 297.591 791.005 298.017L799.006 305.217C799.465 305.646 799.737 306.239 799.763 306.866C799.79 307.494 799.57 308.107 799.149 308.574C798.729 309.041 798.142 309.325 797.515 309.364C796.888 309.403 796.27 309.194 795.795 308.783L787.794 301.583C787.321 301.157 787.036 300.561 787.003 299.926C786.97 299.29 787.19 298.667 787.616 298.194ZM783.231 291.484C783.535 291.567 783.82 291.709 784.07 291.902C784.319 292.095 784.528 292.335 784.684 292.609C784.841 292.882 784.942 293.184 784.981 293.497C785.021 293.81 784.999 294.127 784.916 294.431L777.716 320.831C777.633 321.135 777.491 321.42 777.298 321.669C777.105 321.919 776.865 322.128 776.591 322.284C776.318 322.44 776.016 322.541 775.703 322.581C775.39 322.621 775.073 322.599 774.769 322.516C774.465 322.433 774.18 322.291 773.931 322.098C773.681 321.905 773.472 321.665 773.316 321.391C773.16 321.118 773.059 320.816 773.019 320.503C772.979 320.19 773.001 319.873 773.084 319.569L780.284 293.169C780.367 292.865 780.509 292.58 780.702 292.33C780.895 292.081 781.135 291.872 781.409 291.716C781.682 291.559 781.984 291.458 782.297 291.419C782.61 291.379 782.927 291.401 783.231 291.484Z" fill="#D67D00"/>
<path d="M754.656 388H752.203L752.219 386.312H754.656C755.318 386.312 755.872 386.167 756.32 385.875C756.768 385.578 757.107 385.154 757.336 384.602C757.565 384.044 757.68 383.378 757.68 382.602V382.016C757.68 381.417 757.615 380.888 757.484 380.43C757.354 379.971 757.161 379.586 756.906 379.273C756.656 378.961 756.346 378.724 755.977 378.562C755.607 378.401 755.182 378.32 754.703 378.32H752.156V376.625H754.703C755.464 376.625 756.156 376.753 756.781 377.008C757.411 377.263 757.956 377.63 758.414 378.109C758.878 378.583 759.232 379.151 759.477 379.812C759.727 380.474 759.852 381.214 759.852 382.031V382.602C759.852 383.414 759.727 384.154 759.477 384.82C759.232 385.482 758.878 386.049 758.414 386.523C757.956 386.997 757.409 387.362 756.773 387.617C756.138 387.872 755.432 388 754.656 388ZM753.406 376.625V388H751.258V376.625H753.406ZM765.32 388.156C764.68 388.156 764.104 388.052 763.594 387.844C763.083 387.635 762.648 387.346 762.289 386.977C761.935 386.602 761.661 386.167 761.469 385.672C761.281 385.172 761.188 384.635 761.188 384.062V383.75C761.188 383.099 761.281 382.508 761.469 381.977C761.656 381.44 761.922 380.979 762.266 380.594C762.609 380.208 763.021 379.911 763.5 379.703C763.979 379.495 764.508 379.391 765.086 379.391C765.685 379.391 766.214 379.492 766.672 379.695C767.13 379.893 767.513 380.174 767.82 380.539C768.128 380.904 768.359 381.341 768.516 381.852C768.672 382.357 768.75 382.917 768.75 383.531V384.398H762.125V382.977H766.719V382.82C766.708 382.492 766.646 382.193 766.531 381.922C766.417 381.646 766.24 381.427 766 381.266C765.76 381.099 765.451 381.016 765.07 381.016C764.763 381.016 764.495 381.083 764.266 381.219C764.042 381.349 763.854 381.536 763.703 381.781C763.557 382.021 763.448 382.307 763.375 382.641C763.302 382.974 763.266 383.344 763.266 383.75V384.062C763.266 384.417 763.312 384.745 763.406 385.047C763.505 385.349 763.648 385.612 763.836 385.836C764.029 386.055 764.258 386.227 764.523 386.352C764.794 386.471 765.102 386.531 765.445 386.531C765.878 386.531 766.268 386.448 766.617 386.281C766.971 386.109 767.279 385.857 767.539 385.523L768.578 386.602C768.401 386.862 768.161 387.112 767.859 387.352C767.562 387.591 767.203 387.786 766.781 387.938C766.359 388.083 765.872 388.156 765.32 388.156ZM772.828 386.438L774.797 379.547H776.953L774.055 388H772.742L772.828 386.438ZM771.391 379.547L773.383 386.453L773.453 388H772.133L769.227 379.547H771.391ZM781.727 388.156C781.086 388.156 780.51 388.052 780 387.844C779.49 387.635 779.055 387.346 778.695 386.977C778.341 386.602 778.068 386.167 777.875 385.672C777.688 385.172 777.594 384.635 777.594 384.062V383.75C777.594 383.099 777.688 382.508 777.875 381.977C778.062 381.44 778.328 380.979 778.672 380.594C779.016 380.208 779.427 379.911 779.906 379.703C780.385 379.495 780.914 379.391 781.492 379.391C782.091 379.391 782.62 379.492 783.078 379.695C783.536 379.893 783.919 380.174 784.227 380.539C784.534 380.904 784.766 381.341 784.922 381.852C785.078 382.357 785.156 382.917 785.156 383.531V384.398H778.531V382.977H783.125V382.82C783.115 382.492 783.052 382.193 782.938 381.922C782.823 381.646 782.646 381.427 782.406 381.266C782.167 381.099 781.857 381.016 781.477 381.016C781.169 381.016 780.901 381.083 780.672 381.219C780.448 381.349 780.26 381.536 780.109 381.781C779.964 382.021 779.854 382.307 779.781 382.641C779.708 382.974 779.672 383.344 779.672 383.75V384.062C779.672 384.417 779.719 384.745 779.812 385.047C779.911 385.349 780.055 385.612 780.242 385.836C780.435 386.055 780.664 386.227 780.93 386.352C781.201 386.471 781.508 386.531 781.852 386.531C782.284 386.531 782.674 386.448 783.023 386.281C783.378 386.109 783.685 385.857 783.945 385.523L784.984 386.602C784.807 386.862 784.568 387.112 784.266 387.352C783.969 387.591 783.609 387.786 783.188 387.938C782.766 388.083 782.279 388.156 781.727 388.156ZM788.727 376V388H786.656V376H788.727ZM790.328 383.859V383.695C790.328 383.076 790.417 382.505 790.594 381.984C790.771 381.458 791.029 381.003 791.367 380.617C791.706 380.232 792.12 379.932 792.609 379.719C793.099 379.5 793.656 379.391 794.281 379.391C794.917 379.391 795.479 379.5 795.969 379.719C796.464 379.932 796.88 380.232 797.219 380.617C797.557 381.003 797.815 381.458 797.992 381.984C798.169 382.505 798.258 383.076 798.258 383.695V383.859C798.258 384.474 798.169 385.044 797.992 385.57C797.815 386.091 797.557 386.547 797.219 386.938C796.88 387.323 796.466 387.622 795.977 387.836C795.487 388.049 794.927 388.156 794.297 388.156C793.672 388.156 793.112 388.049 792.617 387.836C792.122 387.622 791.706 387.323 791.367 386.938C791.029 386.547 790.771 386.091 790.594 385.57C790.417 385.044 790.328 384.474 790.328 383.859ZM792.391 383.695V383.859C792.391 384.229 792.427 384.576 792.5 384.898C792.573 385.221 792.685 385.505 792.836 385.75C792.987 385.995 793.182 386.188 793.422 386.328C793.667 386.464 793.958 386.531 794.297 386.531C794.63 386.531 794.917 386.464 795.156 386.328C795.396 386.188 795.591 385.995 795.742 385.75C795.898 385.505 796.013 385.221 796.086 384.898C796.159 384.576 796.195 384.229 796.195 383.859V383.695C796.195 383.331 796.159 382.99 796.086 382.672C796.013 382.349 795.898 382.065 795.742 381.82C795.591 381.57 795.393 381.375 795.148 381.234C794.909 381.089 794.62 381.016 794.281 381.016C793.948 381.016 793.661 381.089 793.422 381.234C793.182 381.375 792.987 381.57 792.836 381.82C792.685 382.065 792.573 382.349 792.5 382.672C792.427 382.99 792.391 383.331 792.391 383.695ZM801.82 381.172V391.25H799.75V379.547H801.664L801.82 381.172ZM807.25 383.688V383.852C807.25 384.466 807.177 385.036 807.031 385.562C806.891 386.083 806.682 386.539 806.406 386.93C806.13 387.315 805.786 387.617 805.375 387.836C804.969 388.049 804.5 388.156 803.969 388.156C803.448 388.156 802.995 388.057 802.609 387.859C802.224 387.656 801.898 387.37 801.633 387C801.367 386.63 801.154 386.201 800.992 385.711C800.836 385.216 800.719 384.677 800.641 384.094V383.57C800.719 382.951 800.836 382.388 800.992 381.883C801.154 381.372 801.367 380.932 801.633 380.562C801.898 380.188 802.221 379.898 802.602 379.695C802.987 379.492 803.438 379.391 803.953 379.391C804.49 379.391 804.961 379.492 805.367 379.695C805.779 379.898 806.125 380.19 806.406 380.57C806.688 380.951 806.898 381.404 807.039 381.93C807.18 382.456 807.25 383.042 807.25 383.688ZM805.18 383.852V383.688C805.18 383.312 805.146 382.966 805.078 382.648C805.01 382.326 804.906 382.044 804.766 381.805C804.625 381.56 804.443 381.37 804.219 381.234C803.995 381.099 803.724 381.031 803.406 381.031C803.089 381.031 802.815 381.083 802.586 381.188C802.357 381.292 802.169 381.44 802.023 381.633C801.878 381.826 801.763 382.055 801.68 382.32C801.602 382.581 801.549 382.87 801.523 383.188V384.484C801.57 384.87 801.661 385.216 801.797 385.523C801.932 385.831 802.13 386.076 802.391 386.258C802.656 386.44 803 386.531 803.422 386.531C803.74 386.531 804.01 386.461 804.234 386.32C804.458 386.18 804.641 385.987 804.781 385.742C804.922 385.492 805.023 385.206 805.086 384.883C805.148 384.56 805.18 384.216 805.18 383.852Z" fill="#4B5CC5"/>
<path d="M968.188 95.3984L971.219 97.8047L969.844 99L966.859 96.6094L968.188 95.3984ZM971.273 91.0234V91.6094C971.273 92.4688 971.159 93.2422 970.93 93.9297C970.701 94.612 970.372 95.1927 969.945 95.6719C969.523 96.151 969.021 96.5182 968.438 96.7734C967.854 97.0286 967.208 97.1562 966.5 97.1562C965.797 97.1562 965.151 97.0286 964.562 96.7734C963.979 96.5182 963.474 96.151 963.047 95.6719C962.62 95.1927 962.289 94.612 962.055 93.9297C961.82 93.2422 961.703 92.4688 961.703 91.6094V91.0234C961.703 90.1589 961.818 89.3854 962.047 88.7031C962.281 88.0208 962.609 87.4401 963.031 86.9609C963.458 86.4766 963.964 86.1068 964.547 85.8516C965.135 85.5964 965.781 85.4688 966.484 85.4688C967.193 85.4688 967.839 85.5964 968.422 85.8516C969.01 86.1068 969.516 86.4766 969.938 86.9609C970.365 87.4401 970.693 88.0208 970.922 88.7031C971.156 89.3854 971.273 90.1589 971.273 91.0234ZM969.102 91.6094V91.0078C969.102 90.388 969.044 89.8438 968.93 89.375C968.815 88.901 968.643 88.5026 968.414 88.1797C968.19 87.8568 967.917 87.6146 967.594 87.4531C967.271 87.2865 966.901 87.2031 966.484 87.2031C966.073 87.2031 965.706 87.2865 965.383 87.4531C965.06 87.6146 964.786 87.8568 964.562 88.1797C964.339 88.5026 964.167 88.901 964.047 89.375C963.932 89.8438 963.875 90.388 963.875 91.0078V91.6094C963.875 92.224 963.932 92.7682 964.047 93.2422C964.167 93.7161 964.339 94.1172 964.562 94.4453C964.792 94.7682 965.068 95.013 965.391 95.1797C965.719 95.3464 966.089 95.4297 966.5 95.4297C966.917 95.4297 967.286 95.3464 967.609 95.1797C967.932 95.013 968.203 94.7682 968.422 94.4453C968.646 94.1172 968.815 93.7161 968.93 93.2422C969.044 92.7682 969.102 92.224 969.102 91.6094ZM977.992 94.9922V88.5469H980.07V97H978.117L977.992 94.9922ZM978.258 93.2422L978.898 93.2266C978.898 93.7943 978.836 94.3177 978.711 94.7969C978.586 95.276 978.391 95.6927 978.125 96.0469C977.865 96.3958 977.534 96.6693 977.133 96.8672C976.732 97.0599 976.258 97.1562 975.711 97.1562C975.294 97.1562 974.914 97.099 974.57 96.9844C974.227 96.8646 973.93 96.6797 973.68 96.4297C973.435 96.1745 973.245 95.849 973.109 95.4531C972.974 95.0521 972.906 94.5703 972.906 94.0078V88.5469H974.969V94.0234C974.969 94.3047 975 94.5391 975.062 94.7266C975.13 94.9141 975.221 95.0677 975.336 95.1875C975.456 95.3021 975.594 95.3854 975.75 95.4375C975.911 95.4844 976.083 95.5078 976.266 95.5078C976.766 95.5078 977.159 95.4089 977.445 95.2109C977.737 95.0078 977.945 94.737 978.07 94.3984C978.195 94.0547 978.258 93.6693 978.258 93.2422ZM986.555 95.2031V91.3047C986.555 91.0182 986.505 90.7708 986.406 90.5625C986.307 90.3542 986.156 90.1927 985.953 90.0781C985.75 89.9635 985.492 89.9062 985.18 89.9062C984.904 89.9062 984.661 89.9531 984.453 90.0469C984.25 90.1406 984.094 90.2734 983.984 90.4453C983.875 90.612 983.82 90.8047 983.82 91.0234H981.75C981.75 90.6745 981.833 90.3438 982 90.0312C982.167 89.7135 982.404 89.4323 982.711 89.1875C983.023 88.9375 983.396 88.7422 983.828 88.6016C984.266 88.4609 984.755 88.3906 985.297 88.3906C985.938 88.3906 986.508 88.5 987.008 88.7188C987.513 88.9323 987.909 89.2552 988.195 89.6875C988.487 90.1198 988.633 90.6641 988.633 91.3203V95.0078C988.633 95.4297 988.659 95.7917 988.711 96.0938C988.768 96.3906 988.852 96.6484 988.961 96.8672V97H986.859C986.76 96.7865 986.685 96.5156 986.633 96.1875C986.581 95.8542 986.555 95.526 986.555 95.2031ZM986.844 91.8516L986.859 93.0781H985.555C985.232 93.0781 984.948 93.112 984.703 93.1797C984.458 93.2422 984.258 93.3359 984.102 93.4609C983.945 93.5807 983.828 93.7266 983.75 93.8984C983.672 94.0651 983.633 94.2552 983.633 94.4688C983.633 94.6771 983.68 94.8646 983.773 95.0312C983.872 95.1979 984.013 95.3307 984.195 95.4297C984.383 95.5234 984.602 95.5703 984.852 95.5703C985.216 95.5703 985.534 95.4974 985.805 95.3516C986.076 95.2005 986.286 95.0182 986.438 94.8047C986.589 94.5911 986.669 94.388 986.68 94.1953L987.273 95.0859C987.201 95.2995 987.091 95.526 986.945 95.7656C986.799 96.0052 986.612 96.2292 986.383 96.4375C986.154 96.6458 985.878 96.8177 985.555 96.9531C985.232 97.0885 984.857 97.1562 984.43 97.1562C983.883 97.1562 983.393 97.0469 982.961 96.8281C982.529 96.6094 982.188 96.3099 981.938 95.9297C981.688 95.5495 981.562 95.1172 981.562 94.6328C981.562 94.1849 981.646 93.7891 981.812 93.4453C981.979 93.1016 982.227 92.8125 982.555 92.5781C982.883 92.3385 983.289 92.1589 983.773 92.0391C984.263 91.9141 984.823 91.8516 985.453 91.8516H986.844ZM992.68 85V97H990.609V85H992.68ZM996.836 88.5469V97H994.766V88.5469H996.836ZM994.625 86.3359C994.625 86.0286 994.729 85.7734 994.938 85.5703C995.151 85.3672 995.438 85.2656 995.797 85.2656C996.156 85.2656 996.44 85.3672 996.648 85.5703C996.862 85.7734 996.969 86.0286 996.969 86.3359C996.969 86.638 996.862 86.8906 996.648 87.0938C996.44 87.2969 996.156 87.3984 995.797 87.3984C995.438 87.3984 995.151 87.2969 994.938 87.0938C994.729 86.8906 994.625 86.638 994.625 86.3359ZM1002.8 88.5469V90.0312H997.961V88.5469H1002.8ZM999.258 86.4688H1001.33V94.5625C1001.33 94.8125 1001.36 95.0052 1001.43 95.1406C1001.5 95.276 1001.6 95.3672 1001.73 95.4141C1001.87 95.4609 1002.03 95.4844 1002.22 95.4844C1002.35 95.4844 1002.48 95.4766 1002.59 95.4609C1002.71 95.4453 1002.8 95.4297 1002.88 95.4141L1002.89 96.9609C1002.72 97.0182 1002.52 97.0651 1002.3 97.1016C1002.09 97.138 1001.85 97.1562 1001.58 97.1562C1001.11 97.1562 1000.71 97.0781 1000.36 96.9219C1000.01 96.7604 999.74 96.5026 999.547 96.1484C999.354 95.7891 999.258 95.3151 999.258 94.7266V86.4688ZM1006.66 96.0625L1008.92 88.5469H1011.13L1007.74 98.2812C1007.66 98.4896 1007.56 98.7161 1007.44 98.9609C1007.32 99.2057 1007.16 99.4375 1006.95 99.6562C1006.75 99.8802 1006.49 100.062 1006.19 100.203C1005.89 100.344 1005.52 100.414 1005.09 100.414C1004.9 100.414 1004.73 100.401 1004.59 100.375C1004.44 100.349 1004.29 100.315 1004.12 100.273V98.7266C1004.18 98.7318 1004.24 98.7344 1004.3 98.7344C1004.38 98.7396 1004.44 98.7422 1004.49 98.7422C1004.79 98.7422 1005.04 98.7057 1005.24 98.6328C1005.44 98.5651 1005.6 98.4531 1005.72 98.2969C1005.84 98.1458 1005.95 97.9479 1006.03 97.7031L1006.66 96.0625ZM1005.54 88.5469L1007.45 94.7734L1007.79 96.9531L1006.37 97.2109L1003.31 88.5469H1005.54ZM1022.93 93.2578H1025.08C1025.02 94.0182 1024.81 94.6927 1024.45 95.2812C1024.08 95.8646 1023.57 96.3229 1022.92 96.6562C1022.27 96.9896 1021.48 97.1562 1020.55 97.1562C1019.84 97.1562 1019.2 97.0312 1018.62 96.7812C1018.06 96.526 1017.57 96.1641 1017.16 95.6953C1016.76 95.2214 1016.46 94.6536 1016.24 93.9922C1016.03 93.3255 1015.92 92.5781 1015.92 91.75V90.8828C1015.92 90.0547 1016.03 89.3073 1016.25 88.6406C1016.47 87.974 1016.78 87.4062 1017.19 86.9375C1017.6 86.4635 1018.09 86.099 1018.66 85.8438C1019.24 85.5885 1019.89 85.4609 1020.6 85.4609C1021.53 85.4609 1022.31 85.6328 1022.95 85.9766C1023.59 86.3151 1024.09 86.7812 1024.45 87.375C1024.8 87.9688 1025.01 88.651 1025.09 89.4219H1022.94C1022.9 88.9427 1022.79 88.5365 1022.62 88.2031C1022.46 87.8698 1022.22 87.6172 1021.89 87.4453C1021.57 87.2682 1021.14 87.1797 1020.6 87.1797C1020.18 87.1797 1019.82 87.2578 1019.5 87.4141C1019.19 87.5703 1018.93 87.8047 1018.72 88.1172C1018.51 88.4245 1018.35 88.8099 1018.25 89.2734C1018.15 89.7318 1018.09 90.263 1018.09 90.8672V91.75C1018.09 92.3281 1018.14 92.8464 1018.23 93.3047C1018.33 93.763 1018.47 94.151 1018.67 94.4688C1018.87 94.7865 1019.12 95.0286 1019.44 95.1953C1019.75 95.362 1020.12 95.4453 1020.55 95.4453C1021.08 95.4453 1021.51 95.362 1021.84 95.1953C1022.17 95.0286 1022.42 94.7839 1022.59 94.4609C1022.77 94.138 1022.88 93.737 1022.93 93.2578ZM1028.61 85V97H1026.54V85H1028.61ZM1028.28 92.4688H1027.67C1027.67 91.8802 1027.75 91.3385 1027.91 90.8438C1028.06 90.349 1028.28 89.9193 1028.57 89.5547C1028.86 89.1849 1029.2 88.8984 1029.59 88.6953C1029.99 88.4922 1030.44 88.3906 1030.92 88.3906C1031.34 88.3906 1031.72 88.4505 1032.05 88.5703C1032.4 88.6849 1032.69 88.8698 1032.94 89.125C1033.18 89.3802 1033.37 89.7135 1033.5 90.125C1033.64 90.5312 1033.7 91.026 1033.7 91.6094V97H1031.62V91.5938C1031.62 91.2031 1031.57 90.8958 1031.45 90.6719C1031.34 90.4427 1031.17 90.2786 1030.96 90.1797C1030.75 90.0807 1030.49 90.0312 1030.19 90.0312C1029.85 90.0312 1029.57 90.0964 1029.33 90.2266C1029.09 90.3516 1028.89 90.526 1028.73 90.75C1028.58 90.974 1028.47 91.2318 1028.39 91.5234C1028.32 91.8151 1028.28 92.1302 1028.28 92.4688ZM1039.32 97.1562C1038.68 97.1562 1038.1 97.0521 1037.59 96.8438C1037.08 96.6354 1036.65 96.3464 1036.29 95.9766C1035.93 95.6016 1035.66 95.1667 1035.47 94.6719C1035.28 94.1719 1035.19 93.6354 1035.19 93.0625V92.75C1035.19 92.099 1035.28 91.5078 1035.47 90.9766C1035.66 90.4401 1035.92 89.9792 1036.27 89.5938C1036.61 89.2083 1037.02 88.9115 1037.5 88.7031C1037.98 88.4948 1038.51 88.3906 1039.09 88.3906C1039.68 88.3906 1040.21 88.4922 1040.67 88.6953C1041.13 88.8932 1041.51 89.1745 1041.82 89.5391C1042.13 89.9036 1042.36 90.3411 1042.52 90.8516C1042.67 91.3568 1042.75 91.9167 1042.75 92.5312V93.3984H1036.12V91.9766H1040.72V91.8203C1040.71 91.4922 1040.65 91.1927 1040.53 90.9219C1040.42 90.6458 1040.24 90.4271 1040 90.2656C1039.76 90.099 1039.45 90.0156 1039.07 90.0156C1038.76 90.0156 1038.49 90.0833 1038.27 90.2188C1038.04 90.349 1037.85 90.5365 1037.7 90.7812C1037.56 91.0208 1037.45 91.3073 1037.38 91.6406C1037.3 91.974 1037.27 92.3438 1037.27 92.75V93.0625C1037.27 93.4167 1037.31 93.7448 1037.41 94.0469C1037.51 94.349 1037.65 94.612 1037.84 94.8359C1038.03 95.0547 1038.26 95.2266 1038.52 95.3516C1038.79 95.4714 1039.1 95.5312 1039.45 95.5312C1039.88 95.5312 1040.27 95.4479 1040.62 95.2812C1040.97 95.1094 1041.28 94.8568 1041.54 94.5234L1042.58 95.6016C1042.4 95.862 1042.16 96.112 1041.86 96.3516C1041.56 96.5911 1041.2 96.7865 1040.78 96.9375C1040.36 97.0833 1039.87 97.1562 1039.32 97.1562ZM1047.6 95.5312C1047.89 95.5312 1048.15 95.474 1048.38 95.3594C1048.61 95.2448 1048.79 95.0833 1048.93 94.875C1049.07 94.6667 1049.15 94.4245 1049.16 94.1484H1051.1C1051.09 94.7214 1050.93 95.2344 1050.62 95.6875C1050.3 96.1406 1049.89 96.5 1049.37 96.7656C1048.85 97.026 1048.27 97.1562 1047.63 97.1562C1046.98 97.1562 1046.41 97.0469 1045.93 96.8281C1045.45 96.6094 1045.04 96.3047 1044.72 95.9141C1044.4 95.5234 1044.16 95.0703 1044 94.5547C1043.84 94.0391 1043.77 93.487 1043.77 92.8984V92.6484C1043.77 92.0599 1043.84 91.5078 1044 90.9922C1044.16 90.4766 1044.4 90.0234 1044.72 89.6328C1045.04 89.2422 1045.45 88.9375 1045.93 88.7188C1046.41 88.5 1046.98 88.3906 1047.62 88.3906C1048.31 88.3906 1048.91 88.5234 1049.42 88.7891C1049.94 89.0547 1050.35 89.4297 1050.64 89.9141C1050.94 90.3984 1051.09 90.9688 1051.1 91.625H1049.16C1049.15 91.3229 1049.08 91.0521 1048.95 90.8125C1048.83 90.5729 1048.65 90.3802 1048.42 90.2344C1048.19 90.0885 1047.91 90.0156 1047.59 90.0156C1047.24 90.0156 1046.95 90.0885 1046.71 90.2344C1046.48 90.3802 1046.3 90.5807 1046.17 90.8359C1046.05 91.0859 1045.96 91.3672 1045.91 91.6797C1045.86 91.987 1045.84 92.3099 1045.84 92.6484V92.8984C1045.84 93.2422 1045.86 93.5703 1045.91 93.8828C1045.96 94.1953 1046.05 94.4766 1046.17 94.7266C1046.3 94.9714 1046.48 95.1667 1046.71 95.3125C1046.95 95.4583 1047.24 95.5312 1047.6 95.5312ZM1054.54 84.9922V97H1052.48V84.9922H1054.54ZM1059.84 88.5469L1056.16 92.6797L1054.16 94.7031L1053.51 93.1016L1055.05 91.1641L1057.34 88.5469H1059.84ZM1057.73 97L1055.11 93.0625L1056.48 91.7266L1060.12 97H1057.73Z" fill="#4B5CC5"/>
<circle cx="1010.5" cy="167" r="54" fill="white" stroke="#7938FB" stroke-width="8"/>
<path d="M1004.74 171.301C1005.3 171.016 1005.83 170.746 1006.29 170.454C1007.93 169.396 1008.27 168.065 1008.27 167.139C1008.27 166.209 1007.93 164.877 1006.28 163.82C1005.83 163.527 1005.3 163.261 1004.74 162.976C1001.57 161.356 997.248 159.155 997.026 148.55H1023.91C1023.69 159.151 1019.37 161.356 1016.2 162.976C1015.64 163.261 1015.11 163.527 1014.66 163.82C1013.01 164.877 1012.67 166.209 1012.67 167.139C1012.67 168.069 1013.01 169.396 1014.66 170.454C1015.12 170.746 1015.64 171.016 1016.2 171.301C1019.35 172.91 1023.64 175.104 1023.91 185.544H997.034C997.304 175.1 1001.59 172.91 1004.74 171.301Z" fill="white"/>
<path d="M1025.62 185.608C1025.34 174.046 1020.13 171.38 1016.98 169.775C1016.44 169.498 1015.97 169.258 1015.58 169.01C1014.77 168.489 1014.38 167.878 1014.38 167.135C1014.38 166.393 1014.77 165.781 1015.58 165.26C1015.97 165.013 1016.44 164.776 1016.98 164.499C1020.15 162.879 1025.42 160.179 1025.62 148.385C1026.83 148.119 1027.75 147.039 1027.75 145.745C1027.75 144.249 1026.53 143.041 1025.05 143.041H995.957C994.465 143.041 993.25 144.249 993.25 145.745C993.25 147.02 994.135 148.081 995.316 148.37C995.511 160.183 1000.79 162.883 1003.97 164.503C1004.51 164.776 1004.97 165.016 1005.36 165.26C1006.16 165.781 1006.56 166.396 1006.56 167.139C1006.56 167.881 1006.16 168.493 1005.36 169.014C1004.97 169.261 1004.51 169.498 1003.97 169.775C1000.81 171.384 995.594 174.05 995.32 185.63C994.135 185.919 993.25 186.98 993.25 188.255C993.25 189.748 994.465 190.963 995.957 190.963H1025.05C1026.53 190.963 1027.75 189.748 1027.75 188.255C1027.75 186.954 1026.83 185.87 1025.62 185.608ZM1004.74 171.301C1005.3 171.016 1005.83 170.746 1006.28 170.454C1007.93 169.396 1008.27 168.065 1008.27 167.139C1008.27 166.209 1007.93 164.878 1006.28 163.82C1005.83 163.528 1005.3 163.261 1004.74 162.976C1001.57 161.356 997.247 159.155 997.026 148.55H1023.91C1023.69 159.151 1019.37 161.356 1016.2 162.976C1015.64 163.261 1015.11 163.528 1014.66 163.82C1013.01 164.878 1012.67 166.209 1012.67 167.139C1012.67 168.069 1013.01 169.396 1014.66 170.454C1015.12 170.746 1015.64 171.016 1016.2 171.301C1019.35 172.91 1023.64 175.104 1023.91 185.544H997.034C997.304 175.1 1001.59 172.91 1004.74 171.301Z" fill="#7938FB"/>
<path d="M1021.47 179.173H1011.18V167.135H1011.19C1011.19 165.301 1012.14 163.681 1013.86 162.575C1014.37 162.245 1014.91 161.968 1015.48 161.675C1016.43 161.191 1017.49 160.644 1018.49 159.785H1002.45C1003.44 160.64 1004.49 161.18 1005.42 161.653C1006.03 161.968 1006.57 162.245 1007.08 162.571C1008.8 163.678 1009.75 165.298 1009.75 167.135H1009.76V179.173H999.475C999.029 180.53 998.71 182.188 998.575 184.243H1022.37C1022.23 182.188 1021.91 180.53 1021.47 179.173Z" fill="#7E97DC"/>
<circle cx="1238" cy="401" r="54" fill="white" stroke="#FF8818" stroke-width="8"/>
<path d="M1244.83 391.699C1244.25 391.699 1243.69 391.9 1243.24 392.268C1242.8 392.635 1242.49 393.147 1242.38 393.714C1242.26 394.282 1242.35 394.871 1242.63 395.382C1242.9 395.892 1243.34 396.292 1243.87 396.513C1244.41 396.735 1245 396.764 1245.56 396.595C1246.11 396.427 1246.59 396.072 1246.91 395.59C1247.23 395.109 1247.38 394.531 1247.32 393.955C1247.26 393.379 1247.01 392.84 1246.6 392.431C1246.37 392.199 1246.09 392.014 1245.79 391.888C1245.48 391.763 1245.16 391.698 1244.83 391.699Z" fill="#FF8818"/>
<path d="M1258.76 381.693C1258.76 381.69 1258.76 381.687 1258.76 381.685C1258.68 381.337 1258.51 381.019 1258.26 380.765C1258 380.512 1257.69 380.333 1257.34 380.25C1254.55 379.569 1250.15 380.295 1245.28 382.245C1240.37 384.214 1235.77 387.12 1232.67 390.235C1231.67 391.226 1230.74 392.286 1229.9 393.406C1227.8 393.312 1225.96 393.611 1224.4 394.288C1218.99 396.671 1217.45 402.767 1217.03 405.27C1216.97 405.626 1217 405.991 1217.1 406.336C1217.21 406.681 1217.39 406.997 1217.64 407.26C1217.88 407.523 1218.19 407.726 1218.52 407.852C1218.86 407.979 1219.22 408.026 1219.58 407.989H1219.59L1225.62 407.331C1225.63 407.408 1225.64 407.478 1225.65 407.543C1225.72 408.278 1226.05 408.963 1226.58 409.485L1229.52 412.43C1230.04 412.954 1230.73 413.282 1231.46 413.359L1231.66 413.381L1231.01 419.403V419.415C1230.97 419.74 1231.01 420.067 1231.11 420.378C1231.21 420.688 1231.37 420.974 1231.59 421.217C1231.81 421.46 1232.07 421.656 1232.37 421.79C1232.66 421.925 1232.99 421.997 1233.31 422C1233.44 422 1233.57 421.99 1233.7 421.968C1236.22 421.563 1242.31 420.036 1244.69 414.594C1245.36 413.051 1245.66 411.214 1245.57 409.124C1246.7 408.278 1247.76 407.352 1248.76 406.354C1251.89 403.236 1254.81 398.674 1256.75 393.837C1258.69 389.022 1259.42 384.594 1258.76 381.693ZM1248.72 398.088C1247.95 398.859 1246.97 399.385 1245.9 399.598C1244.83 399.811 1243.73 399.702 1242.72 399.285C1241.71 398.868 1240.85 398.162 1240.24 397.256C1239.64 396.35 1239.32 395.284 1239.32 394.194C1239.32 393.104 1239.64 392.039 1240.24 391.133C1240.85 390.226 1241.71 389.52 1242.72 389.103C1243.73 388.687 1244.83 388.578 1245.9 388.791C1246.97 389.004 1247.95 389.529 1248.72 390.3C1249.24 390.809 1249.65 391.415 1249.93 392.084C1250.21 392.752 1250.35 393.469 1250.35 394.194C1250.35 394.919 1250.21 395.636 1249.93 396.305C1249.65 396.973 1249.24 397.58 1248.72 398.088Z" fill="#FF8818"/>
<path d="M1229.18 413.229C1228.82 413.184 1228.45 413.273 1228.15 413.479C1227.55 413.889 1226.95 414.294 1226.34 414.688C1225.11 415.487 1223.64 414.085 1224.37 412.813L1225.51 410.845C1225.67 410.606 1225.77 410.326 1225.77 410.038C1225.78 409.749 1225.7 409.465 1225.55 409.218C1225.4 408.972 1225.19 408.774 1224.93 408.648C1224.67 408.522 1224.38 408.474 1224.09 408.509C1222.83 408.669 1221.65 409.245 1220.75 410.146C1220.41 410.49 1219.36 411.535 1218.8 415.514C1218.64 416.657 1218.54 417.808 1218.5 418.962C1218.49 419.162 1218.53 419.361 1218.6 419.547C1218.68 419.734 1218.79 419.904 1218.93 420.047C1219.07 420.191 1219.23 420.304 1219.42 420.382C1219.6 420.46 1219.8 420.5 1220 420.5H1220.04C1221.19 420.459 1222.34 420.359 1223.49 420.2C1227.47 419.637 1228.51 418.593 1228.86 418.25C1229.76 417.349 1230.34 416.168 1230.49 414.899C1230.54 414.505 1230.42 414.107 1230.18 413.794C1229.93 413.48 1229.58 413.277 1229.18 413.229Z" fill="#FF8818"/>
<path d="M1217.67 482H1215.22L1215.23 480.312H1217.67C1218.33 480.312 1218.89 480.167 1219.34 479.875C1219.78 479.578 1220.12 479.154 1220.35 478.602C1220.58 478.044 1220.7 477.378 1220.7 476.602V476.016C1220.7 475.417 1220.63 474.888 1220.5 474.43C1220.37 473.971 1220.18 473.586 1219.92 473.273C1219.67 472.961 1219.36 472.724 1218.99 472.562C1218.62 472.401 1218.2 472.32 1217.72 472.32H1215.17V470.625H1217.72C1218.48 470.625 1219.17 470.753 1219.8 471.008C1220.43 471.263 1220.97 471.63 1221.43 472.109C1221.89 472.583 1222.25 473.151 1222.49 473.812C1222.74 474.474 1222.87 475.214 1222.87 476.031V476.602C1222.87 477.414 1222.74 478.154 1222.49 478.82C1222.25 479.482 1221.89 480.049 1221.43 480.523C1220.97 480.997 1220.42 481.362 1219.79 481.617C1219.15 481.872 1218.45 482 1217.67 482ZM1216.42 470.625V482H1214.27V470.625H1216.42ZM1228.34 482.156C1227.7 482.156 1227.12 482.052 1226.61 481.844C1226.1 481.635 1225.66 481.346 1225.3 480.977C1224.95 480.602 1224.68 480.167 1224.48 479.672C1224.3 479.172 1224.2 478.635 1224.2 478.062V477.75C1224.2 477.099 1224.3 476.508 1224.48 475.977C1224.67 475.44 1224.94 474.979 1225.28 474.594C1225.62 474.208 1226.04 473.911 1226.52 473.703C1226.99 473.495 1227.52 473.391 1228.1 473.391C1228.7 473.391 1229.23 473.492 1229.69 473.695C1230.15 473.893 1230.53 474.174 1230.84 474.539C1231.14 474.904 1231.38 475.341 1231.53 475.852C1231.69 476.357 1231.77 476.917 1231.77 477.531V478.398H1225.14V476.977H1229.73V476.82C1229.72 476.492 1229.66 476.193 1229.55 475.922C1229.43 475.646 1229.26 475.427 1229.02 475.266C1228.78 475.099 1228.47 475.016 1228.09 475.016C1227.78 475.016 1227.51 475.083 1227.28 475.219C1227.06 475.349 1226.87 475.536 1226.72 475.781C1226.57 476.021 1226.46 476.307 1226.39 476.641C1226.32 476.974 1226.28 477.344 1226.28 477.75V478.062C1226.28 478.417 1226.33 478.745 1226.42 479.047C1226.52 479.349 1226.66 479.612 1226.85 479.836C1227.04 480.055 1227.27 480.227 1227.54 480.352C1227.81 480.471 1228.12 480.531 1228.46 480.531C1228.89 480.531 1229.28 480.448 1229.63 480.281C1229.99 480.109 1230.29 479.857 1230.55 479.523L1231.59 480.602C1231.42 480.862 1231.18 481.112 1230.88 481.352C1230.58 481.591 1230.22 481.786 1229.8 481.938C1229.38 482.083 1228.89 482.156 1228.34 482.156ZM1235.34 470V482H1233.27V470H1235.34ZM1239.49 473.547V482H1237.42V473.547H1239.49ZM1237.28 471.336C1237.28 471.029 1237.39 470.773 1237.59 470.57C1237.81 470.367 1238.09 470.266 1238.45 470.266C1238.81 470.266 1239.1 470.367 1239.3 470.57C1239.52 470.773 1239.62 471.029 1239.62 471.336C1239.62 471.638 1239.52 471.891 1239.3 472.094C1239.1 472.297 1238.81 472.398 1238.45 472.398C1238.09 472.398 1237.81 472.297 1237.59 472.094C1237.39 471.891 1237.28 471.638 1237.28 471.336ZM1244.27 480.438L1246.23 473.547H1248.39L1245.49 482H1244.18L1244.27 480.438ZM1242.83 473.547L1244.82 480.453L1244.89 482H1243.57L1240.66 473.547H1242.83ZM1253.16 482.156C1252.52 482.156 1251.95 482.052 1251.44 481.844C1250.93 481.635 1250.49 481.346 1250.13 480.977C1249.78 480.602 1249.51 480.167 1249.31 479.672C1249.12 479.172 1249.03 478.635 1249.03 478.062V477.75C1249.03 477.099 1249.12 476.508 1249.31 475.977C1249.5 475.44 1249.77 474.979 1250.11 474.594C1250.45 474.208 1250.86 473.911 1251.34 473.703C1251.82 473.495 1252.35 473.391 1252.93 473.391C1253.53 473.391 1254.06 473.492 1254.52 473.695C1254.97 473.893 1255.36 474.174 1255.66 474.539C1255.97 474.904 1256.2 475.341 1256.36 475.852C1256.52 476.357 1256.59 476.917 1256.59 477.531V478.398H1249.97V476.977H1254.56V476.82C1254.55 476.492 1254.49 476.193 1254.38 475.922C1254.26 475.646 1254.08 475.427 1253.84 475.266C1253.6 475.099 1253.29 475.016 1252.91 475.016C1252.61 475.016 1252.34 475.083 1252.11 475.219C1251.89 475.349 1251.7 475.536 1251.55 475.781C1251.4 476.021 1251.29 476.307 1251.22 476.641C1251.15 476.974 1251.11 477.344 1251.11 477.75V478.062C1251.11 478.417 1251.16 478.745 1251.25 479.047C1251.35 479.349 1251.49 479.612 1251.68 479.836C1251.87 480.055 1252.1 480.227 1252.37 480.352C1252.64 480.471 1252.95 480.531 1253.29 480.531C1253.72 480.531 1254.11 480.448 1254.46 480.281C1254.82 480.109 1255.12 479.857 1255.38 479.523L1256.42 480.602C1256.24 480.862 1256.01 481.112 1255.7 481.352C1255.41 481.591 1255.05 481.786 1254.62 481.938C1254.2 482.083 1253.72 482.156 1253.16 482.156ZM1260.04 475.273V482H1257.98V473.547H1259.93L1260.04 475.273ZM1262.61 473.492L1262.58 475.414C1262.46 475.393 1262.33 475.378 1262.19 475.367C1262.05 475.357 1261.91 475.352 1261.79 475.352C1261.47 475.352 1261.19 475.396 1260.95 475.484C1260.71 475.568 1260.51 475.69 1260.35 475.852C1260.2 476.013 1260.08 476.211 1259.99 476.445C1259.91 476.674 1259.86 476.935 1259.85 477.227L1259.41 477.172C1259.41 476.635 1259.46 476.138 1259.57 475.68C1259.68 475.221 1259.84 474.82 1260.05 474.477C1260.26 474.133 1260.52 473.867 1260.83 473.68C1261.15 473.487 1261.51 473.391 1261.92 473.391C1262.04 473.391 1262.16 473.401 1262.29 473.422C1262.42 473.438 1262.53 473.461 1262.61 473.492Z" fill="#4B5CC5"/>
</g>
<defs>
<linearGradient id="paint0_linear_94_431" x1="922" y1="224" x2="922" y2="305" gradientUnits="userSpaceOnUse">
<stop stop-color="#4700D6"/>
<stop offset="1" stop-color="#D88C00"/>
</linearGradient>
<linearGradient id="paint1_linear_94_431" x1="494.5" y1="163" x2="494.5" y2="380" gradientUnits="userSpaceOnUse">
<stop stop-color="#C89004"/>
<stop offset="1" stop-color="#00BD9A"/>
</linearGradient>
<clipPath id="clip0_94_431">
<rect width="1340" height="506" rx="8" fill="white"/>
</clipPath>
</defs>
</svg>
