<svg width="1256" height="358" viewBox="0 0 1256 358" fill="none" xmlns="http://www.w3.org/2000/svg">
<g filter="url(#filter0_d_196_196)">
<path d="M0 79C0 56.9086 17.9086 39 40 39L196 39C198.209 39 200 40.7909 200 43V199C200 221.091 182.091 239 160 239H4C1.79086 239 0 237.209 0 235L0 79Z" fill="url(#paint0_linear_196_196)"/>
</g>
<circle cx="200" cy="39" r="24" fill="white"/>
<circle cx="200" cy="39" r="16" fill="url(#paint1_linear_196_196)"/>
<path d="M88.5715 118.333C87.321 116.285 86.6616 113.931 86.6665 111.532C86.6665 104.242 92.6365 98.3333 99.9999 98.3333C107.363 98.3333 113.333 104.242 113.333 111.532C113.338 113.931 112.679 116.285 111.428 118.333M105 126.667L104.783 127.745C104.55 128.923 104.432 129.512 104.167 129.978C103.758 130.698 103.097 131.239 102.312 131.498C101.803 131.667 101.2 131.667 99.9999 131.667C98.7999 131.667 98.1965 131.667 97.6882 131.5C96.9024 131.241 96.2412 130.698 95.8332 129.978C95.5682 129.512 95.4499 128.923 95.2165 127.745L94.9999 126.667M92.3049 123.497C92.1515 123.037 92.0749 122.805 92.0832 122.618C92.0926 122.425 92.1578 122.239 92.2708 122.082C92.3838 121.926 92.5397 121.805 92.7199 121.735C92.8932 121.667 93.1365 121.667 93.6199 121.667H106.38C106.865 121.667 107.107 121.667 107.28 121.733C107.46 121.803 107.616 121.924 107.729 122.081C107.842 122.239 107.907 122.425 107.917 122.618C107.925 122.805 107.848 123.035 107.695 123.497C107.412 124.348 107.27 124.775 107.052 125.12C106.595 125.841 105.879 126.359 105.052 126.568C104.655 126.667 104.208 126.667 103.313 126.667H96.6865C95.7915 126.667 95.3432 126.667 94.9482 126.567C94.121 126.358 93.4052 125.84 92.9482 125.12C92.7299 124.775 92.5882 124.348 92.3049 123.497Z" stroke="white" stroke-width="1.5" stroke-linecap="round" stroke-linejoin="round"/>
<path d="M93.75 111.25L97.5 115V121.667M106.25 111.25L102.5 115V121.667M93.75 112.5C94.0815 112.5 94.3995 112.368 94.6339 112.134C94.8683 111.899 95 111.582 95 111.25C95 110.918 94.8683 110.601 94.6339 110.366C94.3995 110.132 94.0815 110 93.75 110C93.4185 110 93.1005 110.132 92.8661 110.366C92.6317 110.601 92.5 110.918 92.5 111.25C92.5 111.582 92.6317 111.899 92.8661 112.134C93.1005 112.368 93.4185 112.5 93.75 112.5ZM106.25 112.5C105.918 112.5 105.601 112.368 105.366 112.134C105.132 111.899 105 111.582 105 111.25C105 110.918 105.132 110.601 105.366 110.366C105.601 110.132 105.918 110 106.25 110C106.582 110 106.899 110.132 107.134 110.366C107.368 110.601 107.5 110.918 107.5 111.25C107.5 111.582 107.368 111.899 107.134 112.134C106.899 112.368 106.582 112.5 106.25 112.5Z" stroke="white" stroke-width="1.5" stroke-linecap="round" stroke-linejoin="round"/>
<path d="M47.511 164.405V179H45.117V164.405H47.511ZM56.4921 167.24C57.4021 167.24 58.2141 167.429 58.9281 167.807C59.6561 168.185 60.2231 168.745 60.6291 169.487C61.0351 170.229 61.2381 171.125 61.2381 172.175V179H58.8651V172.532C58.8651 171.496 58.6061 170.705 58.0881 170.159C57.5701 169.599 56.8631 169.319 55.9671 169.319C55.0711 169.319 54.3571 169.599 53.8251 170.159C53.3071 170.705 53.0481 171.496 53.0481 172.532V179H50.6541V167.429H53.0481V168.752C53.4401 168.276 53.9371 167.905 54.5391 167.639C55.1551 167.373 55.8061 167.24 56.4921 167.24ZM70.1298 167.24C71.0398 167.24 71.8518 167.429 72.5658 167.807C73.2938 168.185 73.8608 168.745 74.2668 169.487C74.6728 170.229 74.8758 171.125 74.8758 172.175V179H72.5028V172.532C72.5028 171.496 72.2438 170.705 71.7258 170.159C71.2078 169.599 70.5008 169.319 69.6048 169.319C68.7088 169.319 67.9948 169.599 67.4628 170.159C66.9448 170.705 66.6858 171.496 66.6858 172.532V179H64.2918V167.429H66.6858V168.752C67.0778 168.276 67.5748 167.905 68.1768 167.639C68.7928 167.373 69.4438 167.24 70.1298 167.24ZM82.9485 179.189C81.8565 179.189 80.8695 178.944 79.9875 178.454C79.1055 177.95 78.4125 177.25 77.9085 176.354C77.4045 175.444 77.1525 174.394 77.1525 173.204C77.1525 172.028 77.4115 170.985 77.9295 170.075C78.4475 169.165 79.1545 168.465 80.0505 167.975C80.9465 167.485 81.9475 167.24 83.0535 167.24C84.1595 167.24 85.1605 167.485 86.0565 167.975C86.9525 168.465 87.6595 169.165 88.1775 170.075C88.6955 170.985 88.9545 172.028 88.9545 173.204C88.9545 174.38 88.6885 175.423 88.1565 176.333C87.6245 177.243 86.8965 177.95 85.9725 178.454C85.0625 178.944 84.0545 179.189 82.9485 179.189ZM82.9485 177.11C83.5645 177.11 84.1385 176.963 84.6705 176.669C85.2165 176.375 85.6575 175.934 85.9935 175.346C86.3295 174.758 86.4975 174.044 86.4975 173.204C86.4975 172.364 86.3365 171.657 86.0145 171.083C85.6925 170.495 85.2655 170.054 84.7335 169.76C84.2015 169.466 83.6275 169.319 83.0115 169.319C82.3955 169.319 81.8215 169.466 81.2895 169.76C80.7715 170.054 80.3585 170.495 80.0505 171.083C79.7425 171.657 79.5885 172.364 79.5885 173.204C79.5885 174.45 79.9035 175.416 80.5335 176.102C81.1775 176.774 81.9825 177.11 82.9485 177.11ZM95.7941 176.858L99.0701 167.429H101.611L97.2011 179H94.3451L89.9561 167.429H92.5181L95.7941 176.858ZM102.623 173.162C102.623 172 102.861 170.971 103.337 170.075C103.827 169.179 104.485 168.486 105.311 167.996C106.151 167.492 107.075 167.24 108.083 167.24C108.993 167.24 109.784 167.422 110.456 167.786C111.142 168.136 111.688 168.577 112.094 169.109V167.429H114.509V179H112.094V177.278C111.688 177.824 111.135 178.279 110.435 178.643C109.735 179.007 108.937 179.189 108.041 179.189C107.047 179.189 106.137 178.937 105.311 178.433C104.485 177.915 103.827 177.201 103.337 176.291C102.861 175.367 102.623 174.324 102.623 173.162ZM112.094 173.204C112.094 172.406 111.926 171.713 111.59 171.125C111.268 170.537 110.841 170.089 110.309 169.781C109.777 169.473 109.203 169.319 108.587 169.319C107.971 169.319 107.397 169.473 106.865 169.781C106.333 170.075 105.899 170.516 105.563 171.104C105.241 171.678 105.08 172.364 105.08 173.162C105.08 173.96 105.241 174.66 105.563 175.262C105.899 175.864 106.333 176.326 106.865 176.648C107.411 176.956 107.985 177.11 108.587 177.11C109.203 177.11 109.777 176.956 110.309 176.648C110.841 176.34 111.268 175.892 111.59 175.304C111.926 174.702 112.094 174.002 112.094 173.204ZM120.446 169.382V175.787C120.446 176.221 120.544 176.536 120.74 176.732C120.95 176.914 121.3 177.005 121.79 177.005H123.26V179H121.37C120.292 179 119.466 178.748 118.892 178.244C118.318 177.74 118.031 176.921 118.031 175.787V169.382H116.666V167.429H118.031V164.552H120.446V167.429H123.26V169.382H120.446ZM126.685 165.896C126.251 165.896 125.887 165.749 125.593 165.455C125.299 165.161 125.152 164.797 125.152 164.363C125.152 163.929 125.299 163.565 125.593 163.271C125.887 162.977 126.251 162.83 126.685 162.83C127.105 162.83 127.462 162.977 127.756 163.271C128.05 163.565 128.197 163.929 128.197 164.363C128.197 164.797 128.05 165.161 127.756 165.455C127.462 165.749 127.105 165.896 126.685 165.896ZM127.861 167.429V179H125.467V167.429H127.861ZM136.023 179.189C134.931 179.189 133.944 178.944 133.062 178.454C132.18 177.95 131.487 177.25 130.983 176.354C130.479 175.444 130.227 174.394 130.227 173.204C130.227 172.028 130.486 170.985 131.004 170.075C131.522 169.165 132.229 168.465 133.125 167.975C134.021 167.485 135.022 167.24 136.128 167.24C137.234 167.24 138.235 167.485 139.131 167.975C140.027 168.465 140.734 169.165 141.252 170.075C141.77 170.985 142.029 172.028 142.029 173.204C142.029 174.38 141.763 175.423 141.231 176.333C140.699 177.243 139.971 177.95 139.047 178.454C138.137 178.944 137.129 179.189 136.023 179.189ZM136.023 177.11C136.639 177.11 137.213 176.963 137.745 176.669C138.291 176.375 138.732 175.934 139.068 175.346C139.404 174.758 139.572 174.044 139.572 173.204C139.572 172.364 139.411 171.657 139.089 171.083C138.767 170.495 138.34 170.054 137.808 169.76C137.276 169.466 136.702 169.319 136.086 169.319C135.47 169.319 134.896 169.466 134.364 169.76C133.846 170.054 133.433 170.495 133.125 171.083C132.817 171.657 132.663 172.364 132.663 173.204C132.663 174.45 132.978 175.416 133.608 176.102C134.252 176.774 135.057 177.11 136.023 177.11ZM150.233 167.24C151.143 167.24 151.955 167.429 152.669 167.807C153.397 168.185 153.964 168.745 154.37 169.487C154.776 170.229 154.979 171.125 154.979 172.175V179H152.606V172.532C152.606 171.496 152.347 170.705 151.829 170.159C151.311 169.599 150.604 169.319 149.708 169.319C148.812 169.319 148.098 169.599 147.566 170.159C147.048 170.705 146.789 171.496 146.789 172.532V179H144.395V167.429H146.789V168.752C147.181 168.276 147.678 167.905 148.28 167.639C148.896 167.373 149.547 167.24 150.233 167.24Z" fill="white"/>
<g filter="url(#filter1_d_196_196)">
<path d="M344 196C344 173.909 361.909 156 384 156H540C542.209 156 544 157.791 544 160V316C544 338.091 526.091 356 504 356H348C345.791 356 344 354.209 344 352V196Z" fill="url(#paint2_linear_196_196)"/>
</g>
<circle cx="544" cy="156" r="24" fill="white"/>
<circle cx="544" cy="156" r="16" fill="url(#paint3_linear_196_196)"/>
<path d="M457.62 223.25H454.518L446.908 230.857C447.17 231.525 447.195 232.263 446.977 232.946C446.759 233.63 446.312 234.218 445.712 234.611C445.111 235.004 444.394 235.178 443.68 235.104C442.966 235.031 442.3 234.713 441.792 234.206C441.285 233.699 440.968 233.032 440.894 232.318C440.82 231.604 440.995 230.887 441.388 230.287C441.781 229.686 442.368 229.24 443.052 229.022C443.736 228.804 444.474 228.828 445.142 229.09L452.75 221.482V218.38C452.75 217.965 452.915 217.567 453.208 217.273L456.092 214.39C456.145 214.336 456.212 214.298 456.285 214.28C456.359 214.261 456.436 214.263 456.508 214.285C456.657 214.328 456.767 214.452 456.797 214.603L457.563 218.438L461.397 219.205C461.547 219.235 461.67 219.345 461.713 219.493C461.735 219.565 461.737 219.642 461.719 219.715C461.701 219.788 461.663 219.855 461.61 219.908L458.725 222.792C458.432 223.085 458.034 223.249 457.62 223.25Z" fill="white"/>
<path d="M428.375 232C428.375 236.144 430.021 240.118 432.951 243.049C435.882 245.979 439.856 247.625 444 247.625C446.052 247.625 448.084 247.221 449.979 246.436C451.875 245.65 453.598 244.499 455.049 243.049C456.499 241.598 457.65 239.875 458.436 237.979C459.221 236.084 459.625 234.052 459.625 232C459.625 230.503 459.415 229.057 459.023 227.688C458.945 227.374 458.993 227.042 459.155 226.762C459.317 226.482 459.581 226.275 459.892 226.186C460.203 226.097 460.537 226.132 460.823 226.284C461.109 226.436 461.325 226.692 461.425 227C461.882 228.59 462.125 230.267 462.125 232C462.125 242.01 454.01 250.125 444 250.125C433.99 250.125 425.875 242.01 425.875 232C425.875 221.99 433.99 213.875 444 213.875C445.692 213.873 447.373 214.108 449 214.573C449.159 214.618 449.307 214.693 449.436 214.795C449.566 214.897 449.674 215.024 449.754 215.168C449.834 215.311 449.885 215.47 449.904 215.633C449.923 215.797 449.909 215.963 449.864 216.121C449.819 216.279 449.743 216.427 449.64 216.556C449.537 216.685 449.41 216.792 449.266 216.872C449.121 216.951 448.963 217.001 448.799 217.019C448.635 217.037 448.47 217.023 448.312 216.977C446.909 216.576 445.458 216.374 444 216.375C439.856 216.375 435.882 218.021 432.951 220.951C430.021 223.882 428.375 227.856 428.375 232Z" fill="white"/>
<path d="M435.875 232C435.88 233.104 436.109 234.195 436.55 235.207C436.99 236.22 437.632 237.131 438.437 237.887C439.242 238.643 440.192 239.227 441.23 239.603C442.267 239.979 443.371 240.14 444.473 240.075C445.575 240.011 446.652 239.722 447.639 239.227C448.626 238.733 449.501 238.042 450.212 237.198C450.923 236.353 451.455 235.373 451.774 234.316C452.093 233.259 452.194 232.149 452.07 231.052C452.035 230.83 452.061 230.602 452.144 230.393C452.228 230.185 452.367 230.002 452.546 229.866C452.725 229.73 452.937 229.644 453.16 229.619C453.384 229.594 453.61 229.629 453.815 229.722C454.233 229.908 454.515 230.307 454.552 230.763C454.81 232.955 454.38 235.174 453.32 237.11C452.26 239.046 450.623 240.604 448.637 241.566C446.65 242.529 444.413 242.849 442.237 242.482C440.06 242.115 438.052 241.079 436.492 239.518C434.931 237.959 433.895 235.953 433.526 233.778C433.158 231.603 433.475 229.368 434.434 227.381C435.393 225.395 436.947 223.756 438.879 222.693C440.811 221.629 443.027 221.193 445.218 221.445C445.384 221.46 445.545 221.509 445.692 221.587C445.838 221.665 445.968 221.772 446.073 221.901C446.178 222.031 446.256 222.179 446.303 222.339C446.349 222.499 446.364 222.666 446.345 222.831C446.326 222.997 446.274 223.157 446.193 223.302C446.111 223.447 446.002 223.574 445.87 223.676C445.739 223.778 445.589 223.853 445.428 223.897C445.267 223.94 445.1 223.951 444.935 223.928C443.797 223.797 442.643 223.907 441.551 224.253C440.458 224.598 439.451 225.171 438.596 225.933C437.74 226.696 437.055 227.63 436.586 228.676C436.118 229.721 435.875 230.854 435.875 232Z" fill="white"/>
<path d="M392.834 283.337V287.621H397.874V289.574H392.834V294.047H398.504V296H390.44V281.384H398.504V283.337H392.834ZM406.408 290.141L410.146 296H407.437L404.938 292.073L402.586 296H400.087L403.825 290.309L400.087 284.429H402.796L405.295 288.356L407.647 284.429H410.146L406.408 290.141ZM411.134 290.204C411.134 289.014 411.372 287.971 411.848 287.075C412.338 286.165 413.01 285.465 413.864 284.975C414.718 284.485 415.698 284.24 416.804 284.24C418.204 284.24 419.359 284.576 420.269 285.248C421.193 285.906 421.816 286.851 422.138 288.083H419.555C419.345 287.509 419.009 287.061 418.547 286.739C418.085 286.417 417.504 286.256 416.804 286.256C415.824 286.256 415.04 286.606 414.452 287.306C413.878 287.992 413.591 288.958 413.591 290.204C413.591 291.45 413.878 292.423 414.452 293.123C415.04 293.823 415.824 294.173 416.804 294.173C418.19 294.173 419.107 293.564 419.555 292.346H422.138C421.802 293.522 421.172 294.46 420.248 295.16C419.324 295.846 418.176 296.189 416.804 296.189C415.698 296.189 414.718 295.944 413.864 295.454C413.01 294.95 412.338 294.25 411.848 293.354C411.372 292.444 411.134 291.394 411.134 290.204ZM435.129 289.931C435.129 290.365 435.101 290.757 435.045 291.107H426.204C426.274 292.031 426.617 292.773 427.233 293.333C427.849 293.893 428.605 294.173 429.501 294.173C430.789 294.173 431.699 293.634 432.231 292.556H434.814C434.464 293.62 433.827 294.495 432.903 295.181C431.993 295.853 430.859 296.189 429.501 296.189C428.395 296.189 427.401 295.944 426.519 295.454C425.651 294.95 424.965 294.25 424.461 293.354C423.971 292.444 423.726 291.394 423.726 290.204C423.726 289.014 423.964 287.971 424.44 287.075C424.93 286.165 425.609 285.465 426.477 284.975C427.359 284.485 428.367 284.24 429.501 284.24C430.593 284.24 431.566 284.478 432.42 284.954C433.274 285.43 433.939 286.102 434.415 286.97C434.891 287.824 435.129 288.811 435.129 289.931ZM432.63 289.175C432.616 288.293 432.301 287.586 431.685 287.054C431.069 286.522 430.306 286.256 429.396 286.256C428.57 286.256 427.863 286.522 427.275 287.054C426.687 287.572 426.337 288.279 426.225 289.175H432.63ZM439.879 280.46V296H437.485V280.46H439.879ZM445.416 280.46V296H443.022V280.46H445.416ZM459.164 289.931C459.164 290.365 459.136 290.757 459.08 291.107H450.239C450.309 292.031 450.652 292.773 451.268 293.333C451.884 293.893 452.64 294.173 453.536 294.173C454.824 294.173 455.734 293.634 456.266 292.556H458.849C458.499 293.62 457.862 294.495 456.938 295.181C456.028 295.853 454.894 296.189 453.536 296.189C452.43 296.189 451.436 295.944 450.554 295.454C449.686 294.95 449 294.25 448.496 293.354C448.006 292.444 447.761 291.394 447.761 290.204C447.761 289.014 447.999 287.971 448.475 287.075C448.965 286.165 449.644 285.465 450.512 284.975C451.394 284.485 452.402 284.24 453.536 284.24C454.628 284.24 455.601 284.478 456.455 284.954C457.309 285.43 457.974 286.102 458.45 286.97C458.926 287.824 459.164 288.811 459.164 289.931ZM456.665 289.175C456.651 288.293 456.336 287.586 455.72 287.054C455.104 286.522 454.341 286.256 453.431 286.256C452.605 286.256 451.898 286.522 451.31 287.054C450.722 287.572 450.372 288.279 450.26 289.175H456.665ZM467.358 284.24C468.268 284.24 469.08 284.429 469.794 284.807C470.522 285.185 471.089 285.745 471.495 286.487C471.901 287.229 472.104 288.125 472.104 289.175V296H469.731V289.532C469.731 288.496 469.472 287.705 468.954 287.159C468.436 286.599 467.729 286.319 466.833 286.319C465.937 286.319 465.223 286.599 464.691 287.159C464.173 287.705 463.914 288.496 463.914 289.532V296H461.52V284.429H463.914V285.752C464.306 285.276 464.803 284.905 465.405 284.639C466.021 284.373 466.672 284.24 467.358 284.24ZM474.36 290.204C474.36 289.014 474.598 287.971 475.074 287.075C475.564 286.165 476.236 285.465 477.09 284.975C477.944 284.485 478.924 284.24 480.03 284.24C481.43 284.24 482.585 284.576 483.495 285.248C484.419 285.906 485.042 286.851 485.364 288.083H482.781C482.571 287.509 482.235 287.061 481.773 286.739C481.311 286.417 480.73 286.256 480.03 286.256C479.05 286.256 478.266 286.606 477.678 287.306C477.104 287.992 476.817 288.958 476.817 290.204C476.817 291.45 477.104 292.423 477.678 293.123C478.266 293.823 479.05 294.173 480.03 294.173C481.416 294.173 482.333 293.564 482.781 292.346H485.364C485.028 293.522 484.398 294.46 483.474 295.16C482.55 295.846 481.402 296.189 480.03 296.189C478.924 296.189 477.944 295.944 477.09 295.454C476.236 294.95 475.564 294.25 475.074 293.354C474.598 292.444 474.36 291.394 474.36 290.204ZM498.354 289.931C498.354 290.365 498.326 290.757 498.27 291.107H489.429C489.499 292.031 489.842 292.773 490.458 293.333C491.074 293.893 491.83 294.173 492.726 294.173C494.014 294.173 494.924 293.634 495.456 292.556H498.039C497.689 293.62 497.052 294.495 496.128 295.181C495.218 295.853 494.084 296.189 492.726 296.189C491.62 296.189 490.626 295.944 489.744 295.454C488.876 294.95 488.19 294.25 487.686 293.354C487.196 292.444 486.951 291.394 486.951 290.204C486.951 289.014 487.189 287.971 487.665 287.075C488.155 286.165 488.834 285.465 489.702 284.975C490.584 284.485 491.592 284.24 492.726 284.24C493.818 284.24 494.791 284.478 495.645 284.954C496.499 285.43 497.164 286.102 497.64 286.97C498.116 287.824 498.354 288.811 498.354 289.931ZM495.855 289.175C495.841 288.293 495.526 287.586 494.91 287.054C494.294 286.522 493.531 286.256 492.621 286.256C491.795 286.256 491.088 286.522 490.5 287.054C489.912 287.572 489.562 288.279 489.45 289.175H495.855Z" fill="white"/>
<g filter="url(#filter2_d_196_196)">
<path d="M688 64C688 41.9086 705.909 24 728 24L884 24C886.209 24 888 25.7909 888 28V184C888 206.091 870.091 224 848 224H692C689.791 224 688 222.209 688 220V64Z" fill="url(#paint4_linear_196_196)"/>
</g>
<circle cx="888" cy="24" r="24" fill="white"/>
<circle cx="888" cy="24" r="16" fill="url(#paint5_linear_196_196)"/>
<path d="M785 114C783.674 113.998 782.404 113.471 781.466 112.534C780.529 111.596 780.002 110.326 780 109H782C782 109.593 782.176 110.173 782.506 110.667C782.835 111.16 783.304 111.545 783.852 111.772C784.4 111.999 785.003 112.058 785.585 111.942C786.167 111.827 786.702 111.541 787.121 111.121C787.541 110.702 787.827 110.167 787.942 109.585C788.058 109.003 787.999 108.4 787.772 107.852C787.545 107.304 787.16 106.835 786.667 106.506C786.173 106.176 785.593 106 785 106H776V104H785C786.326 104 787.598 104.527 788.536 105.464C789.473 106.402 790 107.674 790 109C790 110.326 789.473 111.598 788.536 112.536C787.598 113.473 786.326 114 785 114Z" fill="white"/>
<path d="M797 109C795.674 108.998 794.404 108.471 793.466 107.534C792.529 106.596 792.002 105.326 792 104H794C794 104.593 794.176 105.173 794.506 105.667C794.835 106.16 795.304 106.545 795.852 106.772C796.4 106.999 797.003 107.058 797.585 106.942C798.167 106.827 798.702 106.541 799.121 106.121C799.541 105.702 799.827 105.167 799.942 104.585C800.058 104.003 799.999 103.4 799.772 102.852C799.545 102.304 799.16 101.835 798.667 101.506C798.173 101.176 797.593 101 797 101H774V99H797C798.326 99 799.598 99.5268 800.536 100.464C801.473 101.402 802 102.674 802 104C802 105.326 801.473 106.598 800.536 107.536C799.598 108.473 798.326 109 797 109ZM793 96H778V94H793C793.593 94 794.173 93.8241 794.667 93.4944C795.16 93.1648 795.545 92.6962 795.772 92.1481C795.999 91.5999 796.058 90.9967 795.942 90.4147C795.827 89.8328 795.541 89.2982 795.121 88.8787C794.702 88.4591 794.167 88.1734 793.585 88.0576C793.003 87.9419 792.4 88.0013 791.852 88.2284C791.304 88.4554 790.835 88.8399 790.506 89.3333C790.176 89.8266 790 90.4067 790 91H788C788 90.0111 788.293 89.0444 788.843 88.2222C789.392 87.3999 790.173 86.759 791.087 86.3806C792 86.0022 793.006 85.9031 793.975 86.0961C794.945 86.289 795.836 86.7652 796.536 87.4645C797.235 88.1637 797.711 89.0546 797.904 90.0246C798.097 90.9945 797.998 91.9998 797.619 92.9134C797.241 93.827 796.6 94.6079 795.778 95.1573C794.956 95.7068 793.989 96 793 96Z" fill="white"/>
<path d="M742.566 147.337V151.621H747.606V153.574H742.566V158.047H748.236V160H740.172V145.384H748.236V147.337H742.566ZM765.191 148.24C766.101 148.24 766.913 148.429 767.627 148.807C768.355 149.185 768.922 149.745 769.328 150.487C769.748 151.229 769.958 152.125 769.958 153.175V160H767.585V153.532C767.585 152.496 767.326 151.705 766.808 151.159C766.29 150.599 765.583 150.319 764.687 150.319C763.791 150.319 763.077 150.599 762.545 151.159C762.027 151.705 761.768 152.496 761.768 153.532V160H759.395V153.532C759.395 152.496 759.136 151.705 758.618 151.159C758.1 150.599 757.393 150.319 756.497 150.319C755.601 150.319 754.887 150.599 754.355 151.159C753.837 151.705 753.578 152.496 753.578 153.532V160H751.184V148.429H753.578V149.752C753.97 149.276 754.467 148.905 755.069 148.639C755.671 148.373 756.315 148.24 757.001 148.24C757.925 148.24 758.751 148.436 759.479 148.828C760.207 149.22 760.767 149.787 761.159 150.529C761.509 149.829 762.055 149.276 762.797 148.87C763.539 148.45 764.337 148.24 765.191 148.24ZM775.399 150.13C775.805 149.598 776.358 149.15 777.058 148.786C777.758 148.422 778.549 148.24 779.431 148.24C780.439 148.24 781.356 148.492 782.182 148.996C783.022 149.486 783.68 150.179 784.156 151.075C784.632 151.971 784.87 153 784.87 154.162C784.87 155.324 784.632 156.367 784.156 157.291C783.68 158.201 783.022 158.915 782.182 159.433C781.356 159.937 780.439 160.189 779.431 160.189C778.549 160.189 777.765 160.014 777.079 159.664C776.393 159.3 775.833 158.852 775.399 158.32V165.502H773.005V148.429H775.399V150.13ZM782.434 154.162C782.434 153.364 782.266 152.678 781.93 152.104C781.608 151.516 781.174 151.075 780.628 150.781C780.096 150.473 779.522 150.319 778.906 150.319C778.304 150.319 777.73 150.473 777.184 150.781C776.652 151.089 776.218 151.537 775.882 152.125C775.56 152.713 775.399 153.406 775.399 154.204C775.399 155.002 775.56 155.702 775.882 156.304C776.218 156.892 776.652 157.34 777.184 157.648C777.73 157.956 778.304 158.11 778.906 158.11C779.522 158.11 780.096 157.956 780.628 157.648C781.174 157.326 781.608 156.864 781.93 156.262C782.266 155.66 782.434 154.96 782.434 154.162ZM792.256 160.189C791.164 160.189 790.177 159.944 789.295 159.454C788.413 158.95 787.72 158.25 787.216 157.354C786.712 156.444 786.46 155.394 786.46 154.204C786.46 153.028 786.719 151.985 787.237 151.075C787.755 150.165 788.462 149.465 789.358 148.975C790.254 148.485 791.255 148.24 792.361 148.24C793.467 148.24 794.468 148.485 795.364 148.975C796.26 149.465 796.967 150.165 797.485 151.075C798.003 151.985 798.262 153.028 798.262 154.204C798.262 155.38 797.996 156.423 797.464 157.333C796.932 158.243 796.204 158.95 795.28 159.454C794.37 159.944 793.362 160.189 792.256 160.189ZM792.256 158.11C792.872 158.11 793.446 157.963 793.978 157.669C794.524 157.375 794.965 156.934 795.301 156.346C795.637 155.758 795.805 155.044 795.805 154.204C795.805 153.364 795.644 152.657 795.322 152.083C795 151.495 794.573 151.054 794.041 150.76C793.509 150.466 792.935 150.319 792.319 150.319C791.703 150.319 791.129 150.466 790.597 150.76C790.079 151.054 789.666 151.495 789.358 152.083C789.05 152.657 788.896 153.364 788.896 154.204C788.896 155.45 789.211 156.416 789.841 157.102C790.485 157.774 791.29 158.11 792.256 158.11ZM816.169 148.429L812.578 160H810.058L807.727 151.453L805.396 160H802.876L799.264 148.429H801.7L804.115 157.732L806.572 148.429H809.071L811.423 157.69L813.817 148.429H816.169ZM828.563 153.931C828.563 154.365 828.535 154.757 828.479 155.107H819.638C819.708 156.031 820.051 156.773 820.667 157.333C821.283 157.893 822.039 158.173 822.935 158.173C824.223 158.173 825.133 157.634 825.665 156.556H828.248C827.898 157.62 827.261 158.495 826.337 159.181C825.427 159.853 824.293 160.189 822.935 160.189C821.829 160.189 820.835 159.944 819.953 159.454C819.085 158.95 818.399 158.25 817.895 157.354C817.405 156.444 817.16 155.394 817.16 154.204C817.16 153.014 817.398 151.971 817.874 151.075C818.364 150.165 819.043 149.465 819.911 148.975C820.793 148.485 821.801 148.24 822.935 148.24C824.027 148.24 825 148.478 825.854 148.954C826.708 149.43 827.373 150.102 827.849 150.97C828.325 151.824 828.563 152.811 828.563 153.931ZM826.064 153.175C826.05 152.293 825.735 151.586 825.119 151.054C824.503 150.522 823.74 150.256 822.83 150.256C822.004 150.256 821.297 150.522 820.709 151.054C820.121 151.572 819.771 152.279 819.659 153.175H826.064ZM833.313 150.109C833.663 149.521 834.125 149.066 834.699 148.744C835.287 148.408 835.98 148.24 836.778 148.24V150.718H836.169C835.231 150.718 834.517 150.956 834.027 151.432C833.551 151.908 833.313 152.734 833.313 153.91V160H830.919V148.429H833.313V150.109Z" fill="white"/>
<g filter="url(#filter3_d_196_196)">
<path d="M1032 196C1032 173.909 1049.91 156 1072 156H1228C1230.21 156 1232 157.791 1232 160V316C1232 338.091 1214.09 356 1192 356H1036C1033.79 356 1032 354.209 1032 352V196Z" fill="url(#paint6_linear_196_196)"/>
</g>
<circle cx="1232" cy="156" r="24" fill="white"/>
<circle cx="1232" cy="156" r="16" fill="url(#paint7_linear_196_196)"/>
<path d="M1129 246C1127.67 245.998 1126.4 245.471 1125.47 244.534C1124.53 243.596 1124 242.326 1124 241H1126C1126 241.593 1126.18 242.173 1126.51 242.667C1126.84 243.16 1127.3 243.545 1127.85 243.772C1128.4 243.999 1129 244.058 1129.59 243.942C1130.17 243.827 1130.7 243.541 1131.12 243.121C1131.54 242.702 1131.83 242.167 1131.94 241.585C1132.06 241.003 1132 240.4 1131.77 239.852C1131.54 239.304 1131.16 238.835 1130.67 238.506C1130.17 238.176 1129.59 238 1129 238H1120V236H1129C1130.33 236 1131.6 236.527 1132.54 237.464C1133.47 238.402 1134 239.674 1134 241C1134 242.326 1133.47 243.598 1132.54 244.536C1131.6 245.473 1130.33 246 1129 246Z" fill="white"/>
<path d="M1141 241C1139.67 240.998 1138.4 240.471 1137.47 239.534C1136.53 238.596 1136 237.326 1136 236H1138C1138 236.593 1138.18 237.173 1138.51 237.667C1138.84 238.16 1139.3 238.545 1139.85 238.772C1140.4 238.999 1141 239.058 1141.59 238.942C1142.17 238.827 1142.7 238.541 1143.12 238.121C1143.54 237.702 1143.83 237.167 1143.94 236.585C1144.06 236.003 1144 235.4 1143.77 234.852C1143.54 234.304 1143.16 233.835 1142.67 233.506C1142.17 233.176 1141.59 233 1141 233H1118V231H1141C1142.33 231 1143.6 231.527 1144.54 232.464C1145.47 233.402 1146 234.674 1146 236C1146 237.326 1145.47 238.598 1144.54 239.536C1143.6 240.473 1142.33 241 1141 241ZM1137 228H1122V226H1137C1137.59 226 1138.17 225.824 1138.67 225.494C1139.16 225.165 1139.54 224.696 1139.77 224.148C1140 223.6 1140.06 222.997 1139.94 222.415C1139.83 221.833 1139.54 221.298 1139.12 220.879C1138.7 220.459 1138.17 220.173 1137.59 220.058C1137 219.942 1136.4 220.001 1135.85 220.228C1135.3 220.455 1134.84 220.84 1134.51 221.333C1134.18 221.827 1134 222.407 1134 223H1132C1132 222.011 1132.29 221.044 1132.84 220.222C1133.39 219.4 1134.17 218.759 1135.09 218.381C1136 218.002 1137.01 217.903 1137.98 218.096C1138.95 218.289 1139.84 218.765 1140.54 219.464C1141.23 220.164 1141.71 221.055 1141.9 222.025C1142.1 222.994 1142 224 1141.62 224.913C1141.24 225.827 1140.6 226.608 1139.78 227.157C1138.96 227.707 1137.99 228 1137 228Z" fill="white"/>
<path d="M1066.45 292.147C1065.47 292.147 1064.59 291.979 1063.81 291.643C1063.02 291.293 1062.41 290.803 1061.96 290.173C1061.51 289.543 1061.29 288.808 1061.29 287.968H1063.85C1063.9 288.598 1064.15 289.116 1064.58 289.522C1065.03 289.928 1065.65 290.131 1066.45 290.131C1067.28 290.131 1067.92 289.935 1068.38 289.543C1068.85 289.137 1069.08 288.619 1069.08 287.989C1069.08 287.499 1068.93 287.1 1068.64 286.792C1068.36 286.484 1068 286.246 1067.57 286.078C1067.15 285.91 1066.56 285.728 1065.8 285.532C1064.85 285.28 1064.07 285.028 1063.47 284.776C1062.88 284.51 1062.38 284.104 1061.96 283.558C1061.54 283.012 1061.33 282.284 1061.33 281.374C1061.33 280.534 1061.54 279.799 1061.96 279.169C1062.38 278.539 1062.97 278.056 1063.72 277.72C1064.48 277.384 1065.35 277.216 1066.35 277.216C1067.76 277.216 1068.92 277.573 1069.81 278.287C1070.72 278.987 1071.23 279.953 1071.32 281.185H1068.68C1068.64 280.653 1068.38 280.198 1067.92 279.82C1067.46 279.442 1066.85 279.253 1066.1 279.253C1065.41 279.253 1064.85 279.428 1064.42 279.778C1063.98 280.128 1063.76 280.632 1063.76 281.29C1063.76 281.738 1063.9 282.109 1064.16 282.403C1064.44 282.683 1064.79 282.907 1065.21 283.075C1065.63 283.243 1066.21 283.425 1066.94 283.621C1067.9 283.887 1068.69 284.153 1069.29 284.419C1069.9 284.685 1070.42 285.098 1070.84 285.658C1071.28 286.204 1071.49 286.939 1071.49 287.863C1071.49 288.605 1071.29 289.305 1070.88 289.963C1070.49 290.621 1069.91 291.153 1069.14 291.559C1068.38 291.951 1067.49 292.147 1066.45 292.147ZM1084.8 280.429V292H1082.4V290.635C1082.02 291.111 1081.53 291.489 1080.91 291.769C1080.31 292.035 1079.67 292.168 1078.98 292.168C1078.07 292.168 1077.25 291.979 1076.52 291.601C1075.81 291.223 1075.24 290.663 1074.82 289.921C1074.42 289.179 1074.21 288.283 1074.21 287.233V280.429H1076.59V286.876C1076.59 287.912 1076.84 288.71 1077.36 289.27C1077.88 289.816 1078.59 290.089 1079.48 290.089C1080.38 290.089 1081.09 289.816 1081.6 289.27C1082.14 288.71 1082.4 287.912 1082.4 286.876V280.429H1084.8ZM1092.16 292.189C1091.25 292.189 1090.43 292.028 1089.7 291.706C1088.98 291.37 1088.42 290.922 1088 290.362C1087.58 289.788 1087.35 289.151 1087.33 288.451H1089.8C1089.85 288.941 1090.08 289.354 1090.5 289.69C1090.93 290.012 1091.47 290.173 1092.11 290.173C1092.79 290.173 1093.3 290.047 1093.67 289.795C1094.05 289.529 1094.23 289.193 1094.23 288.787C1094.23 288.353 1094.02 288.031 1093.6 287.821C1093.2 287.611 1092.55 287.38 1091.65 287.128C1090.78 286.89 1090.08 286.659 1089.53 286.435C1088.98 286.211 1088.51 285.868 1088.1 285.406C1087.71 284.944 1087.51 284.335 1087.51 283.579C1087.51 282.963 1087.7 282.403 1088.06 281.899C1088.42 281.381 1088.94 280.975 1089.61 280.681C1090.3 280.387 1091.08 280.24 1091.97 280.24C1093.28 280.24 1094.34 280.576 1095.14 281.248C1095.95 281.906 1096.38 282.809 1096.44 283.957H1094.05C1094 283.439 1093.79 283.026 1093.42 282.718C1093.04 282.41 1092.53 282.256 1091.88 282.256C1091.25 282.256 1090.77 282.375 1090.43 282.613C1090.1 282.851 1089.93 283.166 1089.93 283.558C1089.93 283.866 1090.04 284.125 1090.27 284.335C1090.49 284.545 1090.76 284.713 1091.08 284.839C1091.41 284.951 1091.88 285.098 1092.51 285.28C1093.35 285.504 1094.04 285.735 1094.57 285.973C1095.12 286.197 1095.59 286.533 1095.98 286.981C1096.37 287.429 1096.57 288.024 1096.59 288.766C1096.59 289.424 1096.4 290.012 1096.04 290.53C1095.68 291.048 1095.16 291.454 1094.49 291.748C1093.83 292.042 1093.05 292.189 1092.16 292.189ZM1101.97 282.382V288.787C1101.97 289.221 1102.06 289.536 1102.26 289.732C1102.47 289.914 1102.82 290.005 1103.31 290.005H1104.78V292H1102.89C1101.81 292 1100.99 291.748 1100.41 291.244C1099.84 290.74 1099.55 289.921 1099.55 288.787V282.382H1098.19V280.429H1099.55V277.552H1101.97V280.429H1104.78V282.382H1101.97ZM1106.19 286.162C1106.19 285 1106.43 283.971 1106.9 283.075C1107.39 282.179 1108.05 281.486 1108.88 280.996C1109.72 280.492 1110.64 280.24 1111.65 280.24C1112.56 280.24 1113.35 280.422 1114.02 280.786C1114.71 281.136 1115.25 281.577 1115.66 282.109V280.429H1118.07V292H1115.66V290.278C1115.25 290.824 1114.7 291.279 1114 291.643C1113.3 292.007 1112.5 292.189 1111.61 292.189C1110.61 292.189 1109.7 291.937 1108.88 291.433C1108.05 290.915 1107.39 290.201 1106.9 289.291C1106.43 288.367 1106.19 287.324 1106.19 286.162ZM1115.66 286.204C1115.66 285.406 1115.49 284.713 1115.16 284.125C1114.83 283.537 1114.41 283.089 1113.87 282.781C1113.34 282.473 1112.77 282.319 1112.15 282.319C1111.54 282.319 1110.96 282.473 1110.43 282.781C1109.9 283.075 1109.46 283.516 1109.13 284.104C1108.81 284.678 1108.65 285.364 1108.65 286.162C1108.65 286.96 1108.81 287.66 1109.13 288.262C1109.46 288.864 1109.9 289.326 1110.43 289.648C1110.98 289.956 1111.55 290.11 1112.15 290.11C1112.77 290.11 1113.34 289.956 1113.87 289.648C1114.41 289.34 1114.83 288.892 1115.16 288.304C1115.49 287.702 1115.66 287.002 1115.66 286.204ZM1122.44 278.896C1122 278.896 1121.64 278.749 1121.35 278.455C1121.05 278.161 1120.9 277.797 1120.9 277.363C1120.9 276.929 1121.05 276.565 1121.35 276.271C1121.64 275.977 1122 275.83 1122.44 275.83C1122.86 275.83 1123.21 275.977 1123.51 276.271C1123.8 276.565 1123.95 276.929 1123.95 277.363C1123.95 277.797 1123.8 278.161 1123.51 278.455C1123.21 278.749 1122.86 278.896 1122.44 278.896ZM1123.61 280.429V292H1121.22V280.429H1123.61ZM1132.59 280.24C1133.5 280.24 1134.32 280.429 1135.03 280.807C1135.76 281.185 1136.33 281.745 1136.73 282.487C1137.14 283.229 1137.34 284.125 1137.34 285.175V292H1134.97V285.532C1134.97 284.496 1134.71 283.705 1134.19 283.159C1133.67 282.599 1132.97 282.319 1132.07 282.319C1131.17 282.319 1130.46 282.599 1129.93 283.159C1129.41 283.705 1129.15 284.496 1129.15 285.532V292H1126.76V280.429H1129.15V281.752C1129.54 281.276 1130.04 280.905 1130.64 280.639C1131.26 280.373 1131.91 280.24 1132.59 280.24ZM1139.6 286.162C1139.6 285 1139.83 283.971 1140.31 283.075C1140.8 282.179 1141.46 281.486 1142.28 280.996C1143.12 280.492 1144.05 280.24 1145.06 280.24C1145.97 280.24 1146.76 280.422 1147.43 280.786C1148.11 281.136 1148.66 281.577 1149.07 282.109V280.429H1151.48V292H1149.07V290.278C1148.66 290.824 1148.11 291.279 1147.41 291.643C1146.71 292.007 1145.91 292.189 1145.01 292.189C1144.02 292.189 1143.11 291.937 1142.28 291.433C1141.46 290.915 1140.8 290.201 1140.31 289.291C1139.83 288.367 1139.6 287.324 1139.6 286.162ZM1149.07 286.204C1149.07 285.406 1148.9 284.713 1148.56 284.125C1148.24 283.537 1147.81 283.089 1147.28 282.781C1146.75 282.473 1146.18 282.319 1145.56 282.319C1144.94 282.319 1144.37 282.473 1143.84 282.781C1143.31 283.075 1142.87 283.516 1142.54 284.104C1142.21 284.678 1142.05 285.364 1142.05 286.162C1142.05 286.96 1142.21 287.66 1142.54 288.262C1142.87 288.864 1143.31 289.326 1143.84 289.648C1144.38 289.956 1144.96 290.11 1145.56 290.11C1146.18 290.11 1146.75 289.956 1147.28 289.648C1147.81 289.34 1148.24 288.892 1148.56 288.304C1148.9 287.702 1149.07 287.002 1149.07 286.204ZM1157.02 282.151C1157.43 281.591 1157.98 281.136 1158.68 280.786C1159.39 280.422 1160.18 280.24 1161.05 280.24C1162.07 280.24 1163 280.485 1163.82 280.975C1164.65 281.465 1165.3 282.165 1165.78 283.075C1166.25 283.971 1166.49 285 1166.49 286.162C1166.49 287.324 1166.25 288.367 1165.78 289.291C1165.3 290.201 1164.64 290.915 1163.8 291.433C1162.98 291.937 1162.06 292.189 1161.05 292.189C1160.16 292.189 1159.36 292.014 1158.66 291.664C1157.97 291.314 1157.43 290.866 1157.02 290.32V292H1154.63V276.46H1157.02V282.151ZM1164.06 286.162C1164.06 285.364 1163.89 284.678 1163.55 284.104C1163.23 283.516 1162.8 283.075 1162.25 282.781C1161.72 282.473 1161.14 282.319 1160.53 282.319C1159.93 282.319 1159.35 282.473 1158.81 282.781C1158.27 283.089 1157.84 283.537 1157.5 284.125C1157.18 284.713 1157.02 285.406 1157.02 286.204C1157.02 287.002 1157.18 287.702 1157.5 288.304C1157.84 288.892 1158.27 289.34 1158.81 289.648C1159.35 289.956 1159.93 290.11 1160.53 290.11C1161.14 290.11 1161.72 289.956 1162.25 289.648C1162.8 289.326 1163.23 288.864 1163.55 288.262C1163.89 287.66 1164.06 286.96 1164.06 286.162ZM1170.08 278.896C1169.64 278.896 1169.28 278.749 1168.98 278.455C1168.69 278.161 1168.54 277.797 1168.54 277.363C1168.54 276.929 1168.69 276.565 1168.98 276.271C1169.28 275.977 1169.64 275.83 1170.08 275.83C1170.5 275.83 1170.85 275.977 1171.15 276.271C1171.44 276.565 1171.59 276.929 1171.59 277.363C1171.59 277.797 1171.44 278.161 1171.15 278.455C1170.85 278.749 1170.5 278.896 1170.08 278.896ZM1171.25 280.429V292H1168.86V280.429H1171.25ZM1176.79 276.46V292H1174.4V276.46H1176.79ZM1181.15 278.896C1180.72 278.896 1180.35 278.749 1180.06 278.455C1179.76 278.161 1179.62 277.797 1179.62 277.363C1179.62 276.929 1179.76 276.565 1180.06 276.271C1180.35 275.977 1180.72 275.83 1181.15 275.83C1181.57 275.83 1181.93 275.977 1182.22 276.271C1182.52 276.565 1182.66 276.929 1182.66 277.363C1182.66 277.797 1182.52 278.161 1182.22 278.455C1181.93 278.749 1181.57 278.896 1181.15 278.896ZM1182.33 280.429V292H1179.93V280.429H1182.33ZM1188.26 282.382V288.787C1188.26 289.221 1188.36 289.536 1188.56 289.732C1188.77 289.914 1189.12 290.005 1189.61 290.005H1191.08V292H1189.19C1188.11 292 1187.28 291.748 1186.71 291.244C1186.14 290.74 1185.85 289.921 1185.85 288.787V282.382H1184.48V280.429H1185.85V277.552H1188.26V280.429H1191.08V282.382H1188.26ZM1203.7 280.429L1196.6 297.439H1194.12L1196.48 291.811L1191.92 280.429H1194.59L1197.84 289.249L1201.22 280.429H1203.7Z" fill="white"/>
<defs>
<filter id="filter0_d_196_196" x="0" y="39" width="202" height="202" filterUnits="userSpaceOnUse" color-interpolation-filters="sRGB">
<feFlood flood-opacity="0" result="BackgroundImageFix"/>
<feColorMatrix in="SourceAlpha" type="matrix" values="0 0 0 0 0 0 0 0 0 0 0 0 0 0 0 0 0 0 127 0" result="hardAlpha"/>
<feOffset dx="2" dy="2"/>
<feComposite in2="hardAlpha" operator="out"/>
<feColorMatrix type="matrix" values="0 0 0 0 0 0 0 0 0 0 0 0 0 0 0 0 0 0 0.25 0"/>
<feBlend mode="normal" in2="BackgroundImageFix" result="effect1_dropShadow_196_196"/>
<feBlend mode="normal" in="SourceGraphic" in2="effect1_dropShadow_196_196" result="shape"/>
</filter>
<filter id="filter1_d_196_196" x="344" y="156" width="202" height="202" filterUnits="userSpaceOnUse" color-interpolation-filters="sRGB">
<feFlood flood-opacity="0" result="BackgroundImageFix"/>
<feColorMatrix in="SourceAlpha" type="matrix" values="0 0 0 0 0 0 0 0 0 0 0 0 0 0 0 0 0 0 127 0" result="hardAlpha"/>
<feOffset dx="2" dy="2"/>
<feComposite in2="hardAlpha" operator="out"/>
<feColorMatrix type="matrix" values="0 0 0 0 0 0 0 0 0 0 0 0 0 0 0 0 0 0 0.25 0"/>
<feBlend mode="normal" in2="BackgroundImageFix" result="effect1_dropShadow_196_196"/>
<feBlend mode="normal" in="SourceGraphic" in2="effect1_dropShadow_196_196" result="shape"/>
</filter>
<filter id="filter2_d_196_196" x="688" y="24" width="202" height="202" filterUnits="userSpaceOnUse" color-interpolation-filters="sRGB">
<feFlood flood-opacity="0" result="BackgroundImageFix"/>
<feColorMatrix in="SourceAlpha" type="matrix" values="0 0 0 0 0 0 0 0 0 0 0 0 0 0 0 0 0 0 127 0" result="hardAlpha"/>
<feOffset dx="2" dy="2"/>
<feComposite in2="hardAlpha" operator="out"/>
<feColorMatrix type="matrix" values="0 0 0 0 0 0 0 0 0 0 0 0 0 0 0 0 0 0 0.25 0"/>
<feBlend mode="normal" in2="BackgroundImageFix" result="effect1_dropShadow_196_196"/>
<feBlend mode="normal" in="SourceGraphic" in2="effect1_dropShadow_196_196" result="shape"/>
</filter>
<filter id="filter3_d_196_196" x="1032" y="156" width="202" height="202" filterUnits="userSpaceOnUse" color-interpolation-filters="sRGB">
<feFlood flood-opacity="0" result="BackgroundImageFix"/>
<feColorMatrix in="SourceAlpha" type="matrix" values="0 0 0 0 0 0 0 0 0 0 0 0 0 0 0 0 0 0 127 0" result="hardAlpha"/>
<feOffset dx="2" dy="2"/>
<feComposite in2="hardAlpha" operator="out"/>
<feColorMatrix type="matrix" values="0 0 0 0 0 0 0 0 0 0 0 0 0 0 0 0 0 0 0.25 0"/>
<feBlend mode="normal" in2="BackgroundImageFix" result="effect1_dropShadow_196_196"/>
<feBlend mode="normal" in="SourceGraphic" in2="effect1_dropShadow_196_196" result="shape"/>
</filter>
<linearGradient id="paint0_linear_196_196" x1="-28.3833" y1="256.617" x2="265.117" y2="-36.8832" gradientUnits="userSpaceOnUse">
<stop stop-color="#71E12F"/>
<stop offset="1" stop-color="#3E7B1A"/>
</linearGradient>
<linearGradient id="paint1_linear_196_196" x1="200" y1="23" x2="200" y2="55" gradientUnits="userSpaceOnUse">
<stop stop-color="#3E7B1A"/>
<stop offset="1" stop-color="#71E12F"/>
</linearGradient>
<linearGradient id="paint2_linear_196_196" x1="315.617" y1="373.617" x2="609.117" y2="80.1168" gradientUnits="userSpaceOnUse">
<stop stop-color="#8374D2"/>
<stop offset="1" stop-color="#3A316A"/>
</linearGradient>
<linearGradient id="paint3_linear_196_196" x1="544" y1="140" x2="544" y2="172" gradientUnits="userSpaceOnUse">
<stop stop-color="#3A316A"/>
<stop offset="1" stop-color="#8374D2"/>
</linearGradient>
<linearGradient id="paint4_linear_196_196" x1="659.617" y1="241.617" x2="953.117" y2="-51.8832" gradientUnits="userSpaceOnUse">
<stop stop-color="#EEE17E"/>
<stop offset="0.605273" stop-color="#F88622"/>
</linearGradient>
<linearGradient id="paint5_linear_196_196" x1="888" y1="8" x2="888" y2="40" gradientUnits="userSpaceOnUse">
<stop stop-color="#F88622"/>
<stop offset="1" stop-color="#EEE17E"/>
</linearGradient>
<linearGradient id="paint6_linear_196_196" x1="1003.62" y1="373.617" x2="1297.12" y2="80.1168" gradientUnits="userSpaceOnUse">
<stop stop-color="#EE627A"/>
<stop offset="0.819" stop-color="#8D07CF"/>
</linearGradient>
<linearGradient id="paint7_linear_196_196" x1="1232" y1="140" x2="1232" y2="172" gradientUnits="userSpaceOnUse">
<stop stop-color="#8D07CF"/>
<stop offset="1" stop-color="#EE627A"/>
</linearGradient>
</defs>
</svg>
