<svg width="24" height="24" viewBox="0 0 24 24" fill="none" xmlns="http://www.w3.org/2000/svg">
<path d="M16.1249 1.875V2.9295C15.5097 3.03406 14.9256 3.27438 14.4149 3.633L13.6409 2.9055L12.6097 4.008L13.3597 4.71075C13.0174 5.21123 12.7855 5.77879 12.6794 6.37575H11.6249V7.87575H12.6794C12.7889 8.49825 13.0349 9.06525 13.3829 9.56325L12.5857 10.3358L13.6657 11.4158L14.4382 10.6178C14.9362 10.9658 15.5032 11.2118 16.1257 11.3213V12.375H17.6257V11.3205C18.2226 11.2146 18.7901 10.983 19.2907 10.641L19.9927 11.391L21.0952 10.359L20.3677 9.5865C20.7202 9.084 20.9602 8.50275 21.0712 7.875H22.1249V6.375H21.0704C20.9627 5.76767 20.7225 5.19152 20.3669 4.6875L21.0704 3.984L20.0152 2.9295L19.3124 3.633C18.8084 3.27743 18.2323 3.03724 17.6249 2.9295V1.875H16.1249ZM16.8749 4.35975C17.2388 4.35736 17.5995 4.42725 17.9361 4.56536C18.2727 4.70347 18.5785 4.90705 18.8358 5.1643C19.0932 5.42154 19.2968 5.72733 19.435 6.06391C19.5732 6.40049 19.6432 6.76116 19.6409 7.125C19.6409 8.66625 18.4162 9.891 16.8749 9.891C15.3337 9.891 14.1089 8.66625 14.1089 7.125C14.1089 5.58375 15.3337 4.359 16.8749 4.359V4.35975ZM7.14743 8.7885L5.76593 9.351L6.30443 10.7085C5.58765 11.1375 4.98467 11.7328 4.54643 12.444L3.21143 11.904L2.64893 13.2878L3.98393 13.8263C3.87859 14.232 3.82368 14.6491 3.82043 15.0683C3.82043 15.4958 3.88418 15.9128 3.98393 16.3103L2.64893 16.8503L3.21143 18.2325L4.54643 17.6925C4.98077 18.4129 5.58419 19.0166 6.30443 19.4513L5.76443 20.7863L7.14818 21.3488L7.68818 20.0138C8.09388 20.1191 8.51103 20.174 8.93018 20.1773C9.35768 20.1773 9.77618 20.1135 10.1722 20.0138L10.7122 21.3488L12.0944 20.7863L11.5544 19.4513C12.2664 19.0139 12.8618 18.4108 13.2899 17.6933L14.6474 18.2318L15.2099 16.8495L13.8524 16.3095C13.9499 15.912 14.0159 15.4943 14.0159 15.0675C14.0159 14.64 13.9507 14.2215 13.8509 13.8248L15.2107 13.2863L14.6482 11.9025L13.2907 12.4425C12.8597 11.7332 12.2645 11.138 11.5552 10.707L12.0952 9.3495L10.7114 8.787L10.1737 10.1445C9.76741 10.0408 9.35019 9.98618 8.93093 9.98175C8.50343 9.98175 8.08643 10.0463 7.68893 10.1453L7.14893 8.78775L7.14743 8.7885ZM8.92943 11.4825C10.9267 11.4825 12.5144 13.0725 12.5144 15.069C12.5159 17.0663 10.9267 18.678 8.92943 18.678C8.45532 18.6786 7.98575 18.5856 7.54762 18.4045C7.10949 18.2233 6.7114 17.9575 6.37616 17.6223C6.04091 17.287 5.7751 16.8889 5.59394 16.4508C5.41278 16.0127 5.31983 15.5431 5.32043 15.069C5.32043 13.0718 6.93293 11.4825 8.92943 11.4825Z" fill="#252525"/>
</svg>
