<svg width="25" height="25" viewBox="0 0 25 25" fill="none" xmlns="http://www.w3.org/2000/svg">
<path d="M21.5 18.5H15.32C15.1707 18.0806 14.9299 17.6997 14.6151 17.3849C14.3003 17.0701 13.9194 16.8293 13.5 16.68V13.5H20.5C20.7652 13.5 21.0196 13.3946 21.2071 13.2071C21.3946 13.0196 21.5 12.7652 21.5 12.5C21.5 12.2348 21.3946 11.9804 21.2071 11.7929C21.0196 11.6054 20.7652 11.5 20.5 11.5H19.5V5.5C19.5 4.70435 19.1839 3.94129 18.6213 3.37868C18.0587 2.81607 17.2956 2.5 16.5 2.5H8.5C7.70435 2.5 6.94129 2.81607 6.37868 3.37868C5.81607 3.94129 5.5 4.70435 5.5 5.5V11.5H4.5C4.23478 11.5 3.98043 11.6054 3.79289 11.7929C3.60536 11.9804 3.5 12.2348 3.5 12.5C3.5 12.7652 3.60536 13.0196 3.79289 13.2071C3.98043 13.3946 4.23478 13.5 4.5 13.5H11.5V16.68C11.0806 16.8293 10.6997 17.0701 10.3849 17.3849C10.0701 17.6997 9.82932 18.0806 9.68 18.5H3.5C3.23478 18.5 2.98043 18.6054 2.79289 18.7929C2.60536 18.9804 2.5 19.2348 2.5 19.5C2.5 19.7652 2.60536 20.0196 2.79289 20.2071C2.98043 20.3946 3.23478 20.5 3.5 20.5H9.68C9.8902 21.0792 10.2736 21.5795 10.7782 21.9332C11.2827 22.2868 11.8839 22.4765 12.5 22.4765C13.1161 22.4765 13.7173 22.2868 14.2218 21.9332C14.7264 21.5795 15.1098 21.0792 15.32 20.5H21.5C21.7652 20.5 22.0196 20.3946 22.2071 20.2071C22.3946 20.0196 22.5 19.7652 22.5 19.5C22.5 19.2348 22.3946 18.9804 22.2071 18.7929C22.0196 18.6054 21.7652 18.5 21.5 18.5ZM7.5 11.5V5.5C7.5 5.23478 7.60536 4.98043 7.79289 4.79289C7.98043 4.60536 8.23478 4.5 8.5 4.5H16.5C16.7652 4.5 17.0196 4.60536 17.2071 4.79289C17.3946 4.98043 17.5 5.23478 17.5 5.5V11.5H7.5ZM12.5 20.5C12.3022 20.5 12.1089 20.4414 11.9444 20.3315C11.78 20.2216 11.6518 20.0654 11.5761 19.8827C11.5004 19.7 11.4806 19.4989 11.5192 19.3049C11.5578 19.1109 11.653 18.9327 11.7929 18.7929C11.9327 18.653 12.1109 18.5578 12.3049 18.5192C12.4989 18.4806 12.7 18.5004 12.8827 18.5761C13.0654 18.6518 13.2216 18.78 13.3315 18.9444C13.4414 19.1089 13.5 19.3022 13.5 19.5C13.5 19.7652 13.3946 20.0196 13.2071 20.2071C13.0196 20.3946 12.7652 20.5 12.5 20.5Z" fill="white"/>
</svg>
